<svg width="40" height="40" viewBox="0 0 40 40" fill="none" xmlns="http://www.w3.org/2000/svg">
<g id="Frame 707">
<path id="Vector" d="M23.75 25C23.0596 25 22.5 24.4404 22.5 23.75C22.5 23.0596 23.0596 22.5 23.75 22.5M23.75 25C24.4404 25 25 24.4404 25 23.75C25 23.0596 24.4404 22.5 23.75 22.5M23.75 25V22.5M16.25 25C15.5596 25 15 24.4404 15 23.75C15 23.0596 15.5596 22.5 16.25 22.5M16.25 25C16.9404 25 17.5 24.4404 17.5 23.75C17.5 23.0596 16.9404 22.5 16.25 22.5M16.25 25V22.5M25 16.25C25 16.9404 24.4404 17.5 23.75 17.5C23.0596 17.5 22.5 16.9404 22.5 16.25C22.5 15.5596 23.0596 15 23.75 15M25 16.25C25 15.5596 24.4404 15 23.75 15M25 16.25H23.75V15M16.25 17.5C15.5596 17.5 15 16.9404 15 16.25C15 15.5596 15.5596 15 16.25 15M16.25 17.5C16.9404 17.5 17.5 16.9404 17.5 16.25C17.5 15.5596 16.9404 15 16.25 15M16.25 17.5V15" stroke="black" stroke-width="2" stroke-linecap="round" stroke-linejoin="round"/>
</g>
</svg>
