<svg width="30" height="30" viewBox="0 0 30 30" fill="none" xmlns="http://www.w3.org/2000/svg">
<g id="Pdf">
<path id="Vector" d="M16.7075 18.2847C16.1811 17.9535 15.785 17.4502 15.5861 16.8598C15.7704 16.3075 15.826 15.7202 15.7487 15.143C15.724 14.9976 15.6533 14.864 15.547 14.762C15.4407 14.6601 15.3045 14.5951 15.1586 14.5768C15.0126 14.5585 14.8647 14.5879 14.7366 14.6605C14.6085 14.7331 14.5072 14.8451 14.4476 14.9799C14.3501 15.6739 14.4236 16.3812 14.6616 17.0401C14.3365 17.8017 13.9736 18.5466 13.5745 19.2719C12.9667 19.6153 12.1364 20.1303 12.008 20.7226C11.9052 21.2033 12.804 22.4394 14.3363 19.7612C15.0176 19.5076 15.7155 19.3011 16.425 19.1431C16.9494 19.4438 17.5345 19.6228 18.137 19.6668C18.2754 19.6704 18.4117 19.6329 18.5288 19.559C18.646 19.4851 18.7388 19.3782 18.7955 19.2516C18.8522 19.125 18.8703 18.9844 18.8476 18.8475C18.8249 18.7106 18.7623 18.5835 18.6677 18.4822C18.3082 18.1131 17.2382 18.2161 16.7075 18.2847ZM12.6157 20.8599C12.8556 20.4483 13.1724 20.0869 13.5488 19.7955C12.9667 20.7226 12.6157 20.8857 12.6157 20.8685V20.8599ZM15.1153 15.0143C15.3378 15.0143 15.3207 16.0014 15.1666 16.2675C15.0506 15.8627 15.033 15.4359 15.1153 15.0228V15.0143ZM14.3706 19.2032C14.6606 18.6726 14.9123 18.1218 15.1238 17.5551C15.3506 17.9783 15.666 18.3472 16.0483 18.6367C15.474 18.7809 14.9128 18.9733 14.3706 19.2118V19.2032ZM18.3938 19.0487C18.3938 19.0487 18.2397 19.2376 17.2553 18.8084C18.3253 18.7397 18.5051 18.9886 18.3938 19.0573V19.0487Z" fill="#505050"/>
<path id="Vector_2" d="M16.2858 6.85796C16.2039 6.85718 16.112 6.85718 16.0069 6.85718H12.1717C11.2116 6.85718 10.7312 6.85718 10.3645 7.0544C10.042 7.22789 9.77991 7.50451 9.61555 7.84499C9.42871 8.23207 9.42871 8.73916 9.42871 9.75259V20.2478C9.42871 21.2613 9.42871 21.7677 9.61555 22.1548C9.77991 22.4953 10.042 22.7724 10.3645 22.9459C10.7309 23.1429 11.2107 23.1429 12.1689 23.1429L18.6884 23.1429C19.6466 23.1429 20.1257 23.1429 20.492 22.9459C20.8146 22.7724 21.0775 22.4953 21.2419 22.1548C21.4285 21.7681 21.4285 21.2623 21.4285 20.2509V12.5804C21.4285 12.4694 21.4285 12.3723 21.4277 12.2857M16.2858 6.85796C16.5306 6.86032 16.6855 6.8697 16.8333 6.90717C17.0082 6.9515 17.1753 7.0248 17.3287 7.12401C17.5017 7.23588 17.6502 7.39263 17.9464 7.70539L20.6254 10.5332C20.9219 10.8462 21.0693 11.0022 21.1753 11.1848C21.2693 11.3467 21.3388 11.5233 21.3808 11.7079C21.4163 11.8639 21.4254 12.0274 21.4277 12.2857M16.2858 6.85796V9.39051C16.2858 10.4039 16.2858 10.9103 16.4726 11.2974C16.637 11.6379 16.899 11.9152 17.2216 12.0887C17.5879 12.2857 18.0677 12.2857 19.0259 12.2857H21.4277M21.4277 12.2857H21.4287" stroke="#505050" stroke-linecap="round" stroke-linejoin="round"/>
</g>
</svg>
