<svg width="17" height="16" viewBox="0 0 17 16" fill="none" xmlns="http://www.w3.org/2000/svg">
<path id="Vector" d="M16.9394 6.02205C16.8659 5.80083 16.7273 5.60561 16.541 5.46071C16.3547 5.31581 16.1288 5.22762 15.8915 5.20714L11.3852 4.82784L9.61885 0.726606C9.52688 0.511407 9.37176 0.327586 9.17301 0.198289C8.97426 0.068992 8.74078 0 8.50195 0C8.26313 0 8.02964 0.068992 7.83089 0.198289C7.63214 0.327586 7.47702 0.511407 7.38505 0.726606L5.62397 4.82784L1.11236 5.20936C0.874138 5.22891 0.647127 5.31669 0.459795 5.4617C0.272464 5.60671 0.133153 5.8025 0.0593308 6.0245C-0.0144909 6.24651 -0.0195367 6.48486 0.0448263 6.70965C0.109189 6.93445 0.240096 7.13569 0.42113 7.28813L3.84391 10.2085L2.81806 14.5453C2.76382 14.7722 2.77929 15.0098 2.86256 15.2282C2.94583 15.4466 3.09319 15.6362 3.28621 15.7733C3.47924 15.9103 3.70937 15.9888 3.94784 15.9989C4.1863 16.009 4.42252 15.9502 4.62695 15.8299L8.49664 13.5333L12.3747 15.8299C12.5791 15.9502 12.8153 16.009 13.0538 15.9989C13.2923 15.9888 13.5224 15.9103 13.7154 15.7733C13.9084 15.6362 14.0558 15.4466 14.1391 15.2282C14.2223 15.0098 14.2378 14.7722 14.1836 14.5453L13.1585 10.204L16.5805 7.28813C16.7615 7.13516 16.8922 6.93335 16.956 6.70808C17.0199 6.4828 17.0141 6.24413 16.9394 6.02205ZM15.7846 6.39247L12.3625 9.30837C12.196 9.44982 12.0721 9.63293 12.0042 9.838C11.9363 10.0431 11.9269 10.2623 11.9771 10.4722L13.0052 14.8164L9.13021 12.5199C8.94115 12.4075 8.72406 12.348 8.50271 12.348C8.28136 12.348 8.06427 12.4075 7.87521 12.5199L4.00552 14.8164L5.02682 10.4752C5.07701 10.2653 5.06765 10.046 4.99973 9.84096C4.93181 9.63589 4.80792 9.45278 4.64137 9.31133L1.21783 6.39691C1.21755 6.3947 1.21755 6.39246 1.21783 6.39025L5.72792 6.00946C5.94811 5.99051 6.15883 5.91322 6.33734 5.78593C6.51584 5.65864 6.65537 5.48618 6.74086 5.28715L8.50195 1.19111L10.2623 5.28715C10.3478 5.48618 10.4873 5.65864 10.6658 5.78593C10.8443 5.91322 11.055 5.99051 11.2752 6.00946L15.7861 6.39025V6.39543L15.7846 6.39247Z" fill="#505050"/>
</svg>
