<svg width="30" height="30" viewBox="0 0 30 30" fill="none" xmlns="http://www.w3.org/2000/svg">
<g id="Pdf">
<g id="Group">
<path id="Vector" d="M7 15C7 19.4184 10.5816 23 15 23C19.4184 23 23 19.4184 23 15C23 10.5816 19.4184 7 15 7C10.5816 7 7 10.5816 7 15Z" stroke="#505050" stroke-linecap="round" stroke-linejoin="round"/>
<path id="Vector_2" d="M15.7999 7.04004C15.7999 7.04004 18.1999 10.2 18.1999 15C18.1999 19.8 15.7999 22.96 15.7999 22.96M14.1999 22.96C14.1999 22.96 11.7999 19.8 11.7999 15C11.7999 10.2 14.1999 7.04004 14.1999 7.04004M7.50391 17.8H22.4959M7.50391 12.2H22.4959" stroke="#505050" stroke-linecap="round" stroke-linejoin="round"/>
</g>
</g>
</svg>
