
<svg width="30" height="30" viewBox="0 0 30 30" fill="none" xmlns="http://www.w3.org/2000/svg">
<g id="Pdf">
<path id="Vector" fill-rule="evenodd" clip-rule="evenodd" d="M18.439 7C18.0643 6.99987 17.6942 7.08535 17.3548 7.25041C17.0153 7.41548 16.7148 7.6561 16.4744 7.95531C16.234 8.25452 16.0595 8.60503 15.9633 8.98211C15.8672 9.35918 15.8516 9.75364 15.9178 10.1377L12.1911 12.8552C12.1725 12.8686 12.1546 12.8832 12.1376 12.8987C11.7595 12.5909 11.306 12.4 10.8287 12.3476C10.3515 12.2953 9.86974 12.3837 9.4384 12.6027C9.00706 12.8217 8.6435 13.1626 8.38918 13.5864C8.13485 14.0102 8 14.4999 8 14.9996C8 15.4994 8.13485 15.9891 8.38918 16.4129C8.6435 16.8367 9.00706 17.1776 9.4384 17.3966C9.86974 17.6156 10.3515 17.704 10.8287 17.6517C11.306 17.5993 11.7595 17.4084 12.1376 17.1006C12.1546 17.1164 12.1725 17.1312 12.1911 17.1449L15.9178 19.8625C15.8071 20.5047 15.9265 21.1669 16.2532 21.7237C16.5798 22.2805 17.0912 22.6933 17.6905 22.8838C18.2897 23.0743 18.9352 23.0294 19.5048 22.7576C20.0744 22.4857 20.5286 22.0059 20.7812 21.4088C21.0339 20.8116 21.0676 20.1388 20.8759 19.5176C20.6843 18.8963 20.2806 18.3698 19.7412 18.0378C19.2018 17.7057 18.5643 17.5911 17.9493 17.7157C17.3342 17.8402 16.7844 18.1953 16.4039 18.7137L12.875 16.1414C13.0326 15.7951 13.1208 15.4087 13.1208 15.0001C13.1208 14.5914 13.0326 14.2042 12.875 13.8587L16.4047 11.2856C16.6691 11.646 17.0174 11.9302 17.4166 12.1114C17.8159 12.2926 18.253 12.3647 18.6865 12.3209C19.12 12.2772 19.5356 12.119 19.894 11.8613C20.2524 11.6037 20.5418 11.2551 20.7348 10.8485C20.9278 10.4418 21.0181 9.9907 20.997 9.53766C20.9759 9.08461 20.8442 8.64466 20.6144 8.25939C20.3846 7.87412 20.0642 7.55627 19.6835 7.3359C19.3028 7.11553 18.8745 6.99992 18.439 7ZM17.0602 9.66669C17.0602 9.28586 17.2054 8.92063 17.464 8.65135C17.7226 8.38206 18.0733 8.23078 18.439 8.23078C18.8046 8.23078 19.1553 8.38206 19.4139 8.65135C19.6725 8.92063 19.8177 9.28586 19.8177 9.66669C19.8177 10.0475 19.6725 10.4127 19.4139 10.682C19.1553 10.9513 18.8046 11.1026 18.439 11.1026C18.0733 11.1026 17.7226 10.9513 17.464 10.682C17.2054 10.4127 17.0602 10.0475 17.0602 9.66669ZM10.5603 13.5642C10.1946 13.5642 9.84388 13.7154 9.58531 13.9847C9.32674 14.254 9.18148 14.6192 9.18148 15.0001C9.18148 15.3809 9.32674 15.7461 9.58531 16.0154C9.84388 16.2847 10.1946 16.436 10.5603 16.436C10.9259 16.436 11.2766 16.2847 11.5352 16.0154C11.7938 15.7461 11.939 15.3809 11.939 15.0001C11.939 14.6192 11.7938 14.254 11.5352 13.9847C11.2766 13.7154 10.9259 13.5642 10.5603 13.5642ZM18.439 18.8975C18.0733 18.8975 17.7226 19.0488 17.464 19.3181C17.2054 19.5874 17.0602 19.9526 17.0602 20.3334C17.0602 20.7143 17.2054 21.0795 17.464 21.3488C17.7226 21.6181 18.0733 21.7693 18.439 21.7693C18.8046 21.7693 19.1553 21.6181 19.4139 21.3488C19.6725 21.0795 19.8177 20.7143 19.8177 20.3334C19.8177 19.9526 19.6725 19.5874 19.4139 19.3181C19.1553 19.0488 18.8046 18.8975 18.439 18.8975Z" fill="#505050"/>
</g>
</svg>
