<svg width="30" height="30" viewBox="0 0 30 30" fill="none" xmlns="http://www.w3.org/2000/svg">
<g id="Pdf">
<path id="Vector" d="M15.5221 7.0044C16.3867 7.06531 17.1781 7.22962 17.7282 7.77064C18.2896 8.32207 18.4681 9.12999 18.4681 10.1279C18.4681 10.4741 18.4223 10.8933 18.374 11.2804C18.3531 11.4407 18.333 11.5946 18.3129 11.7389L18.2679 12.0827H19.9166C20.5214 12.0827 21.0796 12.1693 21.5541 12.4065C22.0463 12.6518 22.4083 13.0373 22.6439 13.5535C23.0871 14.5265 23.0798 15.9644 22.8233 17.8768L22.7822 18.1894C22.6745 18.9989 22.5828 19.6898 22.4638 20.2573C22.3302 20.8945 22.1469 21.4563 21.8075 21.9003C21.0917 22.8365 19.8812 23 18.1215 23C16.2467 23 14.8401 22.665 13.6626 22.3396L13.1784 22.2033C12.3557 21.9709 11.6889 21.7817 11.0149 21.7336C10.981 22.0804 10.8187 22.4022 10.5597 22.6363C10.3007 22.8704 9.96354 23.0001 9.61389 23H8.40748C8.03419 23 7.67619 22.8522 7.41224 22.5892C7.14829 22.3261 7 21.9694 7 21.5974V13.1816C7 12.4073 7.63055 11.779 8.40748 11.779H9.61389C9.97087 11.779 10.3145 11.9142 10.5752 12.1572C10.836 12.4002 10.9943 12.7329 11.0181 13.0878C11.1628 13.0735 11.3045 13.0381 11.4388 12.9828C12.2117 12.6502 13.6698 11.7533 13.6698 9.6165V8.77252C13.6698 7.79468 14.4757 6.93066 15.5221 7.0044ZM11.0214 20.5298C11.8731 20.5811 12.6934 20.8143 13.5291 21.0523L13.9859 21.1806C15.1167 21.4932 16.4036 21.7977 18.1215 21.7977C19.9528 21.7977 20.5375 21.5781 20.848 21.1718C21.0217 20.9449 21.16 20.5963 21.2823 20.0112C21.3917 19.4902 21.4769 18.849 21.5871 18.0259L21.6273 17.7181C21.8847 15.7945 21.8308 14.6764 21.5453 14.0512C21.4166 13.7691 21.2437 13.596 21.0145 13.4813C20.7692 13.3587 20.4193 13.285 19.9166 13.285H18.0105C17.4628 13.285 16.9706 12.8281 17.0365 12.2206C17.0574 12.0258 17.0888 11.7902 17.121 11.5521L17.1773 11.1297C17.2255 10.7434 17.2617 10.3916 17.2617 10.1279C17.2617 9.22617 17.0904 8.83183 16.8813 8.62664C16.6601 8.41024 16.2588 8.26196 15.4376 8.20345C15.1553 8.18421 14.8762 8.42306 14.8762 8.77252V9.6165C14.8762 12.4618 12.8752 13.6745 11.9165 14.0865C11.6173 14.2147 11.3101 14.2724 11.0214 14.2949V20.5298ZM8.40748 21.7977H9.61389C9.66721 21.7977 9.71836 21.7766 9.75606 21.7391C9.79377 21.7015 9.81496 21.6505 9.81496 21.5974V13.1816C9.81496 13.1284 9.79377 13.0775 9.75606 13.0399C9.71836 13.0023 9.66721 12.9812 9.61389 12.9812H8.40748C8.35415 12.9812 8.30301 13.0023 8.2653 13.0399C8.22759 13.0775 8.20641 13.1284 8.20641 13.1816V21.5974C8.20641 21.708 8.29649 21.7977 8.40748 21.7977Z" fill="#505050"/>
</g>
</svg>
