
<svg width="30" height="30" viewBox="0 0 30 30" fill="none" xmlns="http://www.w3.org/2000/svg">
<g id="Pdf">
<g id="Group">
<path id="Vector" d="M19.6667 14.6667V10.4993C19.6667 10.4467 19.6564 10.3946 19.6362 10.346C19.6161 10.2974 19.5866 10.2532 19.5493 10.216L17.4507 8.11733C17.3757 8.0423 17.2741 8.00009 17.168 8H9.4C9.29391 8 9.19217 8.04214 9.11716 8.11716C9.04214 8.19217 9 8.29391 9 8.4V20.9333C9 21.0394 9.04214 21.1412 9.11716 21.2162C9.19217 21.2912 9.29391 21.3333 9.4 21.3333H15M11.6667 13.3333H17M11.6667 10.6667H14.3333M11.6667 16H13.6667" stroke="#505050" stroke-linecap="round" stroke-linejoin="round"/>
<path id="Vector_2" d="M17 8V10.2667C17 10.3728 17.0421 10.4745 17.1172 10.5495C17.1922 10.6245 17.2939 10.6667 17.4 10.6667H19.6667M19.6613 16.75L21.3653 17.1827C21.5427 17.228 21.6673 17.3893 21.662 17.572C21.5473 21.4107 19.3333 22 19.3333 22C19.3333 22 17.1193 21.4107 17.0047 17.572C17.0026 17.4831 17.0309 17.3961 17.0848 17.3253C17.1387 17.2546 17.215 17.2043 17.3013 17.1827L19.0053 16.75C19.2207 16.6953 19.446 16.6953 19.6613 16.75Z" stroke="#505050" stroke-linecap="round" stroke-linejoin="round"/>
</g>
</g>
</svg>
