<svg width="100" height="100" viewBox="0 0 100 100" fill="none" xmlns="http://www.w3.org/2000/svg">
<g id="Frame 747">
<rect width="100" height="100" rx="10" fill="#FFDDDD"/>
<rect id="Rectangle 2" x="13" y="12" width="75" height="75" rx="5" stroke="#FF7D7D" stroke-width="5"/>
<path id="Vector 4" d="M30 69.5176C36.2567 70.2895 50.4092 70.7011 56.9655 66.173C65.1609 60.5128 67.2759 52.2797 61.4598 55.8817C55.6437 59.4836 57.2299 66.1729 57.7586 67.4593C58.8161 69.5176 62.5172 71.0613 69.6552 64.3719C70.3312 63.7384 70.554 63.137 68.8621 67.4593C66.7471 72.8622 75.2069 67.974 76 66.173" stroke="#FF7D7D" stroke-width="1.5" stroke-linecap="round"/>
<path id="Vector" opacity="0.5" d="M60.0304 40.4828C60.6549 39.8581 61.1503 39.1165 61.4882 38.3003C61.8262 37.4842 62.0001 36.6095 62 35.7261C61.9999 34.8427 61.8259 33.968 61.4878 33.1519C61.1497 32.3359 60.6541 31.5944 60.0295 30.9698C59.4048 30.3452 58.6633 29.8498 57.8472 29.5118C57.0311 29.1738 56.1564 28.9999 55.2731 29C53.4892 29.0002 51.7784 29.709 50.5171 30.9706L49 32.4879L49.065 32.6777C49.8131 34.8172 51.0372 36.759 52.6449 38.3566C54.2898 40.0116 56.2988 41.2593 58.5115 42L60.0304 40.4828Z" fill="#FF7D7D"/>
<path id="Vector_2" d="M49.777 32L49.7119 32.0633L49.7753 32.25C50.5059 34.3348 51.7012 36.2269 53.2711 37.7837C54.8774 39.3965 56.8392 40.6122 59 41.3339L44.7028 55.6015C43.7375 56.5632 43.2548 57.0449 42.7236 57.4583C42.0968 57.9459 41.4186 58.3639 40.701 58.705C40.093 58.995 39.4466 59.21 38.1522 59.6401L31.3327 61.9085C31.0206 62.0128 30.6856 62.0283 30.3652 61.9531C30.0448 61.8779 29.7518 61.7151 29.519 61.483C29.2862 61.2508 29.1229 60.9585 29.0473 60.6389C28.9717 60.3192 28.9869 59.9849 29.0912 59.6734L31.3661 52.8663C31.797 51.5762 32.0125 50.9312 32.3014 50.3245C32.6438 49.6078 33.063 48.9311 33.5524 48.3044C33.9666 47.7743 34.4493 47.2943 35.413 46.3326L49.777 32Z" fill="#FF7D7D"/>
</g>
</svg>
