
<svg width="35" height="35" viewBox="0 0 35 35" fill="none" xmlns="http://www.w3.org/2000/svg">
<g id="Frame 727">
<rect width="35" height="35" rx="17.5" fill="#F4FFB2"/>
<g id="vuesax/linear/pen-tool-2">
<g id="pen-tool-2">
<g id="Group">
<g id="Group_2">
<path id="Vector" d="M16.2848 27.7083H18.7348C19.6682 27.7083 20.271 27.0472 20.096 26.2403L19.6973 24.4806H15.3223L14.9237 26.2403C14.7487 26.9986 15.4098 27.7083 16.2848 27.7083Z" stroke="#505050" stroke-linecap="round" stroke-linejoin="round"/>
<path id="Vector_2" d="M19.6971 24.4709L21.3791 22.9737C22.3222 22.1376 22.361 21.5542 21.6124 20.6111L18.6471 16.8487C18.0249 16.0612 17.0041 16.0612 16.3819 16.8487L13.4166 20.6111C12.668 21.5542 12.668 22.1667 13.6499 22.9737L15.3319 24.4709" stroke="#505050" stroke-linecap="round" stroke-linejoin="round"/>
<path id="Vector_3" d="M17.5098 16.6445V19.1043" stroke="#505050" stroke-linecap="round" stroke-linejoin="round"/>
</g>
</g>
<g id="Group_3">
<path id="Vector_4" d="M18.006 10.6945H17.0337C16.499 10.6945 16.0615 10.257 16.0615 9.72228V8.75005C16.0615 8.21533 16.499 7.77783 17.0337 7.77783H18.006C18.5407 7.77783 18.9782 8.21533 18.9782 8.75005V9.72228C18.9782 10.257 18.5407 10.6945 18.006 10.6945Z" stroke="#505050" stroke-linecap="round" stroke-linejoin="round"/>
<path id="Vector_5" d="M9.01275 19.6098H9.98497C10.5197 19.6098 10.9572 19.1723 10.9572 18.6376V17.6654C10.9572 17.1307 10.5197 16.6931 9.98497 16.6931H9.01275C8.47803 16.6931 8.04053 17.1307 8.04053 17.6654V18.6376C8.04053 19.1723 8.47803 19.6098 9.01275 19.6098Z" stroke="#505050" stroke-linecap="round" stroke-linejoin="round"/>
<path id="Vector_6" d="M25.9879 19.6098H25.0157C24.481 19.6098 24.0435 19.1723 24.0435 18.6376V17.6654C24.0435 17.1307 24.481 16.6931 25.0157 16.6931H25.9879C26.5226 16.6931 26.9601 17.1307 26.9601 17.6654V18.6376C26.9601 19.1723 26.5226 19.6098 25.9879 19.6098Z" stroke="#505050" stroke-linecap="round" stroke-linejoin="round"/>
<path id="Vector_7" d="M16.0614 9.29456C12.3573 9.73206 9.47949 12.8723 9.47949 16.6932" stroke="#505050" stroke-linecap="round" stroke-linejoin="round"/>
<path id="Vector_8" d="M25.5211 16.6932C25.5211 12.882 22.6627 9.7515 18.978 9.29456" stroke="#505050" stroke-linecap="round" stroke-linejoin="round"/>
</g>
</g>
</g>
</g>
</svg>
