<svg width="35" height="35" viewBox="0 0 35 35" fill="none" xmlns="http://www.w3.org/2000/svg">
<g id="Pdf">
<rect width="35" height="35" rx="17.5" fill="#CED0FF"/>
<path id="Vector" d="M19.492 21.3321C18.878 20.9457 18.4158 20.3584 18.1838 19.6697C18.3988 19.0253 18.4637 18.3401 18.3735 17.6667C18.3447 17.4971 18.2622 17.3412 18.1382 17.2223C18.0142 17.1033 17.8553 17.0275 17.685 17.0062C17.5147 16.9848 17.3421 17.019 17.1927 17.1037C17.0433 17.1884 16.9251 17.3191 16.8555 17.4765C16.7418 18.286 16.8275 19.1112 17.1052 19.88C16.7259 20.7685 16.3026 21.6375 15.8369 22.4838C15.1278 22.8844 14.1591 23.4852 14.0093 24.1762C13.8894 24.7371 14.9381 26.1792 16.7257 23.0546C17.5206 22.7587 18.3347 22.5178 19.1625 22.3335C19.7744 22.6844 20.4569 22.8931 21.1598 22.9444C21.3213 22.9486 21.4803 22.9049 21.617 22.8187C21.7537 22.7325 21.8619 22.6077 21.9281 22.4601C21.9942 22.3124 22.0154 22.1484 21.9889 21.9886C21.9624 21.8289 21.8894 21.6806 21.779 21.5624C21.3596 21.1318 20.1112 21.252 19.492 21.3321ZM14.7183 24.3365C14.9982 23.8562 15.3678 23.4346 15.8069 23.0947C15.1278 24.1762 14.7183 24.3665 14.7183 24.3465V24.3365ZM17.6345 17.5165C17.8942 17.5165 17.8742 18.6682 17.6944 18.9786C17.559 18.5064 17.5385 18.0084 17.6345 17.5265V17.5165ZM16.7656 22.4037C17.104 21.7846 17.3977 21.142 17.6445 20.4808C17.9091 20.9745 18.277 21.405 18.7231 21.7427C18.053 21.911 17.3982 22.1354 16.7656 22.4137V22.4037ZM21.4595 22.2234C21.4595 22.2234 21.2797 22.4437 20.1312 21.943C21.3796 21.8629 21.5893 22.1533 21.4595 22.2334V22.2234Z" fill="#505050"/>
<path id="Vector_2" d="M18.9999 8.00092C18.9044 8 18.7972 8 18.6746 8H14.2002C13.0801 8 12.5196 8 12.0918 8.2301C11.7155 8.4325 11.4097 8.75522 11.218 9.15245C11 9.60404 11 10.1957 11 11.378V23.6224C11 24.8048 11 25.3956 11.218 25.8472C11.4097 26.2444 11.7155 26.5677 12.0918 26.7701C12.5192 27 13.079 27 14.1969 27L21.8029 27C22.9208 27 23.4798 27 23.9072 26.7701C24.2835 26.5677 24.5903 26.2444 24.782 25.8472C24.9998 25.3961 24.9998 24.806 24.9998 23.626V14.6771C24.9998 14.5476 24.9998 14.4343 24.9989 14.3333M18.9999 8.00092C19.2855 8.00366 19.4662 8.01461 19.6387 8.05833C19.8428 8.11005 20.0377 8.19556 20.2167 8.31131C20.4184 8.44182 20.5917 8.6247 20.9374 8.98958L24.0628 12.2887C24.4087 12.6538 24.5807 12.8359 24.7044 13.0489C24.814 13.2378 24.8951 13.4438 24.9441 13.6592C24.9855 13.8412 24.9962 14.032 24.9989 14.3333M18.9999 8.00092V10.9556C18.9999 12.1379 18.9999 12.7286 19.2179 13.1802C19.4096 13.5775 19.7154 13.9011 20.0917 14.1035C20.5191 14.3333 21.0789 14.3333 22.1968 14.3333H24.9989M24.9989 14.3333H25" stroke="#505050" stroke-linecap="round" stroke-linejoin="round"/>
</g>
</svg>
