<svg width="35" height="35" viewBox="0 0 35 35" fill="none" xmlns="http://www.w3.org/2000/svg">
<g id="Frame 728">
<rect width="35" height="35" rx="17.5" fill="#FFD5D5"/>
<g id="vuesax/outline/security-safe">
<g id="security-safe">
<path id="Vector" d="M17.0835 26.4529L17.0836 26.4527L17.0708 26.4492C13.1719 25.3749 10.3525 21.7273 10.3525 17.7953V14.3199C10.3525 13.6366 10.8707 12.861 11.5074 12.5973C11.5077 12.5972 11.5079 12.5971 11.5082 12.597L15.9152 10.7931C15.9153 10.793 15.9155 10.7929 15.9157 10.7929C16.943 10.375 18.0659 10.3755 19.0838 10.7926L19.084 10.7927L23.4919 12.597C23.4922 12.5971 23.4924 12.5972 23.4926 12.5973C24.1294 12.861 24.6475 13.6366 24.6475 14.3199V17.7953C24.6475 21.7186 21.8209 25.3673 17.9282 26.4495L17.9282 26.4493L17.9165 26.4529C17.7889 26.4917 17.649 26.5103 17.5 26.5103C17.3511 26.5103 17.2111 26.4917 17.0835 26.4529ZM15.9893 10.9752L15.9885 10.9755L11.579 12.7805L11.579 12.7805L11.5761 12.7817C11.2701 12.9092 11.0184 13.1566 10.847 13.4113C10.6757 13.6657 10.54 13.9934 10.54 14.3278V17.8033C10.54 21.6693 13.3091 25.2152 17.1165 26.2718C17.3652 26.3452 17.6349 26.3452 17.8836 26.2718C21.691 25.2151 24.46 21.6693 24.46 17.8033V14.3278C24.46 13.9934 24.3244 13.6657 24.1531 13.4113C23.9817 13.1566 23.7299 12.9092 23.424 12.7817L23.424 12.7817L23.4211 12.7805L19.0115 10.9755L19.0108 10.9752C18.5243 10.777 18.0169 10.677 17.5 10.677C16.9832 10.677 16.4758 10.777 15.9893 10.9752Z" stroke="#505050"/>
<path id="Vector_2" d="M17.4998 18.9897C16.5726 18.9897 15.8228 18.2398 15.8228 17.3126C15.8228 16.3854 16.5726 15.6355 17.4998 15.6355C18.427 15.6355 19.1769 16.3854 19.1769 17.3126C19.1769 18.2398 18.427 18.9897 17.4998 18.9897ZM17.4998 15.823C16.6774 15.823 16.0103 16.4902 16.0103 17.3126C16.0103 18.135 16.6774 18.8022 17.4998 18.8022C18.3222 18.8022 18.9894 18.135 18.9894 17.3126C18.9894 16.4902 18.3222 15.823 17.4998 15.823Z" stroke="#505050"/>
<path id="Vector_3" d="M17.5 21.3645C17.4784 21.3645 17.4549 21.3558 17.435 21.3358C17.415 21.3158 17.4062 21.2924 17.4062 21.2708V18.8958C17.4062 18.8741 17.415 18.8507 17.435 18.8307C17.4549 18.8107 17.4784 18.802 17.5 18.802C17.5216 18.802 17.5451 18.8107 17.565 18.8307C17.585 18.8507 17.5938 18.8741 17.5938 18.8958V21.2708C17.5938 21.2924 17.585 21.3158 17.565 21.3358C17.5451 21.3558 17.5216 21.3645 17.5 21.3645Z" stroke="#505050"/>
</g>
</g>
</g>
</svg>
