<svg width="36" height="35" viewBox="0 0 36 35" fill="none" xmlns="http://www.w3.org/2000/svg">
<g id="Frame 727">
<rect x="0.5" width="35" height="35" rx="17.5" fill="#F4FFB2"/>
<g id="vuesax/linear/pen-tool-2">
<g id="pen-tool-2">
<g id="Group">
<g id="Group_2">
<path id="Vector" d="M16.7848 27.7083H19.2348C20.1682 27.7083 20.771 27.0472 20.596 26.2403L20.1973 24.4806H15.8223L15.4237 26.2403C15.2487 26.9986 15.9098 27.7083 16.7848 27.7083Z" stroke="#505050" stroke-linecap="round" stroke-linejoin="round"/>
<path id="Vector_2" d="M20.1971 24.4709L21.8791 22.9737C22.8222 22.1376 22.861 21.5542 22.1124 20.6111L19.1471 16.8487C18.5249 16.0612 17.5041 16.0612 16.8819 16.8487L13.9166 20.6111C13.168 21.5542 13.168 22.1667 14.1499 22.9737L15.8319 24.4709" stroke="#505050" stroke-linecap="round" stroke-linejoin="round"/>
<path id="Vector_3" d="M18.0098 16.6445V19.1043" stroke="#505050" stroke-linecap="round" stroke-linejoin="round"/>
</g>
</g>
<g id="Group_3">
<path id="Vector_4" d="M18.506 10.6945H17.5337C16.999 10.6945 16.5615 10.257 16.5615 9.72228V8.75005C16.5615 8.21533 16.999 7.77783 17.5337 7.77783H18.506C19.0407 7.77783 19.4782 8.21533 19.4782 8.75005V9.72228C19.4782 10.257 19.0407 10.6945 18.506 10.6945Z" stroke="#505050" stroke-linecap="round" stroke-linejoin="round"/>
<path id="Vector_5" d="M9.51275 19.6098H10.485C11.0197 19.6098 11.4572 19.1723 11.4572 18.6376V17.6654C11.4572 17.1307 11.0197 16.6931 10.485 16.6931H9.51275C8.97803 16.6931 8.54053 17.1307 8.54053 17.6654V18.6376C8.54053 19.1723 8.97803 19.6098 9.51275 19.6098Z" stroke="#505050" stroke-linecap="round" stroke-linejoin="round"/>
<path id="Vector_6" d="M26.4879 19.6098H25.5157C24.981 19.6098 24.5435 19.1723 24.5435 18.6376V17.6654C24.5435 17.1307 24.981 16.6931 25.5157 16.6931H26.4879C27.0226 16.6931 27.4601 17.1307 27.4601 17.6654V18.6376C27.4601 19.1723 27.0226 19.6098 26.4879 19.6098Z" stroke="#505050" stroke-linecap="round" stroke-linejoin="round"/>
<path id="Vector_7" d="M16.5614 9.29456C12.8573 9.73206 9.97949 12.8723 9.97949 16.6932" stroke="#505050" stroke-linecap="round" stroke-linejoin="round"/>
<path id="Vector_8" d="M26.0211 16.6932C26.0211 12.882 23.1627 9.7515 19.478 9.29456" stroke="#505050" stroke-linecap="round" stroke-linejoin="round"/>
</g>
</g>
</g>
</g>
</svg>
