<svg width="390" height="400" viewBox="0 0 390 400" fill="none" xmlns="http://www.w3.org/2000/svg">
<path d="M395 305.92H-5V306.12H395V305.92Z" fill="#EBEBEB"/>
<path d="M184.6 270.24H30.1279C28.9177 270.238 27.7579 269.756 26.903 268.899C26.048 268.043 25.5679 266.882 25.5679 265.672V48.528C25.5784 47.3248 26.0632 46.1744 26.917 45.3266C27.7708 44.4788 28.9246 44.0021 30.1279 44H184.6C185.811 44 186.973 44.4813 187.83 45.3379C188.687 46.1946 189.168 47.3565 189.168 48.568V265.672C189.168 266.884 188.687 268.045 187.83 268.902C186.973 269.759 185.811 270.24 184.6 270.24ZM30.1279 44.16C28.9708 44.1621 27.8618 44.6233 27.0444 45.4422C26.227 46.2611 25.7679 47.3709 25.7679 48.528V265.672C25.7679 266.829 26.227 267.939 27.0444 268.758C27.8618 269.577 28.9708 270.038 30.1279 270.04H184.6C185.758 270.038 186.867 269.577 187.686 268.758C188.505 267.94 188.966 266.83 188.968 265.672V48.528C188.966 47.3702 188.505 46.2604 187.686 45.4417C186.867 44.623 185.758 44.1621 184.6 44.16H30.1279Z" fill="#EBEBEB"/>
<path d="M357.648 270.24H203.168C201.957 270.238 200.797 269.756 199.94 268.9C199.084 268.044 198.602 266.883 198.6 265.672V48.528C198.613 47.3241 199.099 46.1737 199.954 45.3261C200.809 44.4785 201.964 44.002 203.168 44H357.648C358.85 44.0042 360.002 44.4818 360.854 45.3294C361.706 46.177 362.19 47.3262 362.2 48.528V265.672C362.2 266.881 361.721 268.04 360.868 268.896C360.015 269.753 358.857 270.236 357.648 270.24ZM203.168 44.16C202.01 44.1621 200.9 44.623 200.082 45.4417C199.263 46.2604 198.802 47.3702 198.8 48.528V265.672C198.802 266.83 199.263 267.94 200.082 268.758C200.9 269.577 202.01 270.038 203.168 270.04H357.648C358.806 270.038 359.916 269.577 360.734 268.758C361.553 267.94 362.014 266.83 362.016 265.672V48.528C362.014 47.3702 361.553 46.2604 360.734 45.4417C359.916 44.623 358.806 44.1621 357.648 44.16H203.168Z" fill="#EBEBEB"/>
<path d="M155.352 313.536H134.552V313.736H155.352V313.536Z" fill="#EBEBEB"/>
<path d="M80.2478 311.368H36.9678V311.568H80.2478V311.368Z" fill="#EBEBEB"/>
<path d="M133.752 320.968H112.696V321.168H133.752V320.968Z" fill="#EBEBEB"/>
<path d="M232.648 319.624H201.584V319.824H232.648V319.624Z" fill="#EBEBEB"/>
<path d="M248.32 319.624H239.768V319.824H248.32V319.624Z" fill="#EBEBEB"/>
<path d="M354.928 316.248H311.28V316.448H354.928V316.248Z" fill="#EBEBEB"/>
<path d="M175.24 73H56.5361V198.264H175.24V73Z" fill="white"/>
<path d="M187.968 68.944H48.8559C48.5419 68.944 48.2407 69.0687 48.0187 69.2908C47.7966 69.5128 47.6719 69.814 47.6719 70.128C47.6719 70.2831 47.7026 70.4367 47.7622 70.5799C47.8218 70.7231 47.9091 70.8531 48.0191 70.9624C48.1292 71.0717 48.2598 71.1581 48.4034 71.2168C48.547 71.2754 48.7008 71.305 48.8559 71.304H187.968C188.28 71.304 188.579 71.1801 188.799 70.9595C189.02 70.739 189.144 70.4399 189.144 70.128C189.145 69.9729 189.115 69.8191 189.057 69.6755C188.998 69.5319 188.912 69.4013 188.802 69.2912C188.693 69.1812 188.563 69.0938 188.42 69.0342C188.277 68.9746 188.123 68.944 187.968 68.944Z" fill="white"/>
<path d="M180.288 73H58.896V198.264H180.288V73Z" fill="#F0F0F0"/>
<path d="M175.24 198.264H56.5361V202.944H175.24V198.264Z" fill="white"/>
<path d="M188.672 198.264H67.2798V202.944H188.672V198.264Z" fill="#F0F0F0"/>
<path d="M173.232 191.216V80.056H65.9439V191.216H173.232Z" fill="#858585"/>
<path d="M90.2959 191.216L131.688 80.048H151.224L109.84 191.216H90.2959Z" fill="white"/>
<path d="M114.032 191.216L155.424 80.048H163.04L121.648 191.216H114.032Z" fill="white"/>
<path d="M173.232 191.208V80.048H172.336V191.208H173.232Z" fill="white"/>
<g opacity="0.6">
<path d="M63.0319 179.984H48.1279L56.1599 66.84H71.0639L63.0319 179.984Z" fill="#F0F0F0"/>
<path d="M68.8401 179.984H57.2241L65.2561 66.84H76.8721L68.8401 179.984Z" fill="white"/>
<path d="M77.9357 179.984H63.0317L71.0637 66.84H85.9677L77.9357 179.984Z" fill="#F0F0F0"/>
<path d="M83.7439 179.984H72.1279L80.1679 66.84H91.7759L83.7439 179.984Z" fill="white"/>
<path d="M92.84 179.984H77.936L85.968 66.84H100.88L92.84 179.984Z" fill="#F0F0F0"/>
</g>
<g opacity="0.6">
<path d="M177.824 179.984H186.248L181.712 66.84H173.288L177.824 179.984Z" fill="#F0F0F0"/>
<path d="M174.544 179.984H181.104L176.568 66.84H170L174.544 179.984Z" fill="white"/>
<path d="M169.4 179.984H177.824L173.288 66.84H164.864L169.4 179.984Z" fill="#F0F0F0"/>
<path d="M166.12 179.984H172.68L168.144 66.84H161.576L166.12 179.984Z" fill="white"/>
<path d="M160.976 179.984H169.4L164.864 66.84H156.44L160.976 179.984Z" fill="#F0F0F0"/>
</g>
<path d="M336.328 66.84H254.24V175.976H336.328V66.84Z" fill="white"/>
<path d="M342.56 66.84H256.8V175.976H342.56V66.84Z" fill="white"/>
<path d="M267.911 71.2958L260.278 165.756L331.438 171.506L339.071 77.0462L267.911 71.2958Z" fill="white"/>
<path d="M337.312 76.903L329.679 171.363L331.433 171.505L339.066 77.0448L337.312 76.903Z" fill="white"/>
<path d="M347.088 216.744H301.24V305.92H347.088V216.744Z" fill="white"/>
<path d="M347.088 216.744H343.304V305.92H347.088V216.744Z" fill="#F0F0F0"/>
<path d="M199.208 257.016H304.776V219.28H199.208V257.016Z" fill="white"/>
<path d="M204.288 223.424L347.08 223.424V216.736L204.288 216.736V223.424Z" fill="#F0F0F0"/>
<path d="M204.296 216.744H158.448V305.92H204.296V216.744Z" fill="white"/>
<path d="M160.104 245.152H160.312C163.238 245.152 166.044 246.314 168.113 248.383C170.181 250.452 171.344 253.258 171.344 256.184V305.92H149.072V256.184C149.072 253.258 150.234 250.452 152.303 248.383C154.372 246.314 157.178 245.152 160.104 245.152Z" fill="white"/>
<path d="M204.296 216.744H200.512V305.92H204.296V216.744Z" fill="#F0F0F0"/>
<path d="M255.896 216.744H246.008L248.408 197.488H258.304L255.896 216.744Z" fill="#F0F0F0"/>
<path d="M258.088 216.744H248.192L250.6 197.488H260.488L258.088 216.744Z" fill="white"/>
<path d="M259.288 207.112H249.4L250.6 197.488H260.488L259.288 207.112Z" fill="#F0F0F0"/>
<path d="M222.944 204.8H292.912C293.049 204.8 293.185 204.771 293.31 204.714C293.435 204.658 293.546 204.575 293.637 204.472C293.728 204.37 293.796 204.249 293.836 204.117C293.877 203.986 293.889 203.848 293.872 203.712L288.48 160.576C288.451 160.342 288.337 160.127 288.16 159.971C287.984 159.814 287.756 159.728 287.52 159.728H217.552C217.417 159.731 217.285 159.761 217.162 159.818C217.04 159.874 216.931 159.955 216.841 160.056C216.752 160.156 216.684 160.275 216.643 160.403C216.601 160.531 216.587 160.666 216.6 160.8L221.976 204C222.017 204.226 222.137 204.43 222.314 204.576C222.491 204.723 222.714 204.802 222.944 204.8Z" fill="#F0F0F0"/>
<path d="M223.984 204.8H293.952C294.089 204.8 294.225 204.771 294.35 204.714C294.475 204.658 294.587 204.575 294.677 204.472C294.768 204.37 294.836 204.249 294.877 204.117C294.917 203.986 294.929 203.848 294.912 203.712L289.52 160.576C289.491 160.342 289.377 160.127 289.2 159.971C289.024 159.814 288.796 159.728 288.56 159.728H218.592C218.455 159.728 218.319 159.758 218.193 159.814C218.068 159.87 217.956 159.953 217.865 160.055C217.773 160.158 217.704 160.279 217.663 160.41C217.622 160.541 217.608 160.679 217.624 160.816L223 204C223.042 204.229 223.164 204.435 223.344 204.582C223.525 204.728 223.752 204.806 223.984 204.8Z" fill="white"/>
<path d="M292.656 202.4L287.608 162.024C287.599 161.959 287.566 161.9 287.516 161.857C287.466 161.814 287.402 161.791 287.336 161.792H220.136C220.098 161.792 220.059 161.8 220.024 161.815C219.989 161.831 219.957 161.854 219.932 161.883C219.906 161.911 219.887 161.945 219.875 161.982C219.863 162.019 219.86 162.058 219.864 162.096L224.912 202.472C224.922 202.537 224.955 202.596 225.005 202.639C225.055 202.682 225.118 202.705 225.184 202.704H292.384C292.423 202.704 292.461 202.696 292.496 202.681C292.532 202.665 292.563 202.642 292.589 202.613C292.615 202.585 292.634 202.551 292.645 202.514C292.657 202.477 292.661 202.438 292.656 202.4Z" fill="white"/>
<path d="M285.488 202.736L267.728 161.816H252.152L269.912 202.736H285.488Z" fill="#EBEBEB"/>
<path d="M266.912 202.736L249.152 161.816H243.544L261.304 202.736H266.912Z" fill="#EBEBEB"/>
<path d="M267.064 216.744H250.952V216.544C250.952 216.12 251.121 215.713 251.421 215.413C251.721 215.113 252.128 214.944 252.552 214.944H265.464C265.888 214.944 266.295 215.113 266.595 215.413C266.895 215.713 267.064 216.12 267.064 216.544V216.744Z" fill="white"/>
<path d="M252.84 216.744H241.912V216.544C241.912 216.12 242.08 215.713 242.38 215.413C242.681 215.113 243.088 214.944 243.512 214.944H251.232C251.656 214.944 252.063 215.113 252.363 215.413C252.663 215.713 252.832 216.12 252.832 216.544V216.744H252.84Z" fill="#F0F0F0"/>
<path d="M284.888 216.744H235.08L233.736 212.744H278.408L284.888 216.744Z" fill="white"/>
<path d="M240.56 216.744H232.328L231.216 212.744H239.448L240.56 216.744Z" fill="#F0F0F0"/>
<path d="M224.712 216.736H210.536C210.536 215.849 210.888 214.999 211.515 214.371C212.142 213.744 212.993 213.392 213.88 213.392H221.368C222.255 213.392 223.105 213.744 223.732 214.371C224.36 214.999 224.712 215.849 224.712 216.736Z" fill="#F0F0F0"/>
<path d="M66.376 305.92H80.272L80.272 241.336H66.376V305.92Z" fill="#ADACAC"/>
<path d="M128.072 305.92H71.8961L64.9521 229.6H121.128L128.072 305.92Z" fill="white"/>
<path d="M130.984 305.92H74.808L67.856 229.6H124.04L130.984 305.92Z" fill="#F0F0F0"/>
<path d="M82.4878 297.472L77.0718 238.048H116.36L121.768 297.472H82.4878Z" fill="white"/>
<path d="M195 342.048C280.666 342.048 350.112 337.994 350.112 332.992C350.112 327.991 280.666 323.936 195 323.936C109.334 323.936 39.8882 327.991 39.8882 332.992C39.8882 337.994 109.334 342.048 195 342.048Z" fill="white"/>
<path d="M74.2586 141.596L73.459 141.622L73.807 152.281L74.6065 152.255L74.2586 141.596Z" fill="black"/>
<path d="M73.9588 132.398L73.1592 132.424L73.3247 137.493L74.1243 137.467L73.9588 132.398Z" fill="black"/>
<path d="M84.7603 209.496H237.448C238.264 209.5 239.073 209.338 239.825 209.022C240.577 208.705 241.257 208.239 241.825 207.652C242.392 207.065 242.835 206.37 243.126 205.607C243.418 204.845 243.552 204.032 243.52 203.216L240.12 99.032C240.053 97.3536 239.342 95.7655 238.136 94.5965C236.93 93.4275 235.32 92.7671 233.64 92.752H80.9523C80.1358 92.7482 79.327 92.9096 78.5744 93.2264C77.8219 93.5432 77.1412 94.0089 76.5732 94.5956C76.0053 95.1822 75.5618 95.8776 75.2695 96.64C74.9772 97.4024 74.8421 98.2161 74.8723 99.032L78.2723 203.2C78.338 204.882 79.0485 206.474 80.2565 207.646C81.4644 208.819 83.0772 209.481 84.7603 209.496Z" fill="black"/>
<path d="M85.2482 209.496H237.936C238.753 209.5 239.562 209.338 240.314 209.022C241.067 208.705 241.747 208.239 242.315 207.652C242.883 207.066 243.327 206.37 243.619 205.608C243.911 204.846 244.046 204.032 244.016 203.216L240.6 99.032C240.531 97.3529 239.818 95.7648 238.611 94.5959C237.403 93.4271 235.793 92.767 234.112 92.752H81.4402C80.6241 92.7482 79.8156 92.9096 79.0634 93.2265C78.3113 93.5434 77.6311 94.0092 77.0638 94.596C76.4965 95.1827 76.0538 95.8782 75.7624 96.6406C75.471 97.403 75.3369 98.2165 75.3682 99.032L78.7682 203.2C78.8319 204.881 79.5407 206.473 80.7473 207.646C81.954 208.818 83.5659 209.481 85.2482 209.496Z" fill="black"/>
<path opacity="0.5" d="M85.2482 209.496H237.936C238.753 209.5 239.562 209.338 240.314 209.022C241.067 208.705 241.747 208.239 242.315 207.652C242.883 207.066 243.327 206.37 243.619 205.608C243.911 204.846 244.046 204.032 244.016 203.216L240.6 99.032C240.531 97.3529 239.818 95.7648 238.611 94.5959C237.403 93.4271 235.793 92.767 234.112 92.752H81.4402C80.6241 92.7482 79.8156 92.9096 79.0634 93.2265C78.3113 93.5434 77.6311 94.0092 77.0638 94.596C76.4965 95.1827 76.0538 95.8782 75.7624 96.6406C75.471 97.403 75.3369 98.2165 75.3682 99.032L78.7682 203.2C78.8319 204.881 79.5407 206.473 80.7473 207.646C81.954 208.818 83.5659 209.481 85.2482 209.496Z" fill="white"/>
<path opacity="0.5" d="M233.744 95.888H81.0479H80.5359C76.6239 96.208 77.1839 102.144 81.1279 102.144H234.08C238.016 102.144 238.192 96.208 234.256 95.888C234.088 95.896 233.912 95.888 233.744 95.888Z" fill="black"/>
<path d="M84.9041 99.032C84.9106 99.2184 84.8793 99.4042 84.8121 99.5783C84.745 99.7523 84.6433 99.911 84.5133 100.045C84.3833 100.178 84.2276 100.285 84.0555 100.357C83.8835 100.429 83.6986 100.465 83.5121 100.464C83.1275 100.462 82.7584 100.313 82.4814 100.046C82.2043 99.7793 82.0405 99.4162 82.0241 99.032C82.0165 98.8449 82.047 98.6583 82.1136 98.4833C82.1803 98.3083 82.2817 98.1487 82.4119 98.0141C82.542 97.8794 82.6981 97.7726 82.8707 97.7001C83.0433 97.6275 83.2289 97.5908 83.4161 97.592C83.8025 97.5918 84.1739 97.742 84.4516 98.0107C84.7294 98.2795 84.8916 98.6457 84.9041 99.032Z" fill="#858585"/>
<path d="M89.8001 99.032C89.8077 99.2187 89.7772 99.405 89.7105 99.5796C89.6437 99.7541 89.5421 99.9132 89.4119 100.047C89.2816 100.181 89.1255 100.287 88.9529 100.359C88.7803 100.431 88.5949 100.466 88.4081 100.464C88.0241 100.46 87.6561 100.31 87.3795 100.044C87.1028 99.7775 86.9384 99.4155 86.9201 99.032C86.9125 98.8449 86.943 98.6583 87.0096 98.4833C87.0763 98.3083 87.1777 98.1487 87.3079 98.0141C87.438 97.8794 87.5941 97.7726 87.7667 97.7001C87.9393 97.6275 88.1248 97.5908 88.3121 97.592C88.6985 97.5918 89.0699 97.742 89.3476 98.0107C89.6254 98.2795 89.7876 98.6457 89.8001 99.032Z" fill="#858585"/>
<path d="M94.3073 100.062C94.8555 99.5043 94.8325 98.5927 94.2559 98.0259C93.6793 97.4591 92.7675 97.4517 92.2192 98.0094C91.671 98.5671 91.694 99.4787 92.2706 100.045C92.8472 100.612 93.759 100.62 94.3073 100.062Z" fill="#858585"/>
<path d="M88.2083 199.096H234.304C234.6 199.098 234.893 199.041 235.166 198.927C235.439 198.812 235.685 198.644 235.891 198.431C236.097 198.219 236.257 197.967 236.363 197.691C236.468 197.414 236.516 197.119 236.504 196.824L233.704 111.136C233.672 110.53 233.411 109.959 232.975 109.537C232.539 109.116 231.959 108.875 231.352 108.864H85.2643C84.9686 108.862 84.6754 108.919 84.4027 109.034C84.1299 109.148 83.8832 109.316 83.6775 109.529C83.4718 109.741 83.3114 109.993 83.206 110.269C83.1006 110.546 83.0524 110.841 83.0643 111.136L85.8563 196.8C85.8826 197.41 86.1406 197.987 86.5776 198.414C87.0145 198.84 87.5977 199.084 88.2083 199.096Z" fill="white"/>
<g opacity="0.3">
<path d="M195.424 188.496H192.752V187.736H194.64L194.576 185.848L195.336 185.824L195.424 188.496Z" fill="black"/>
<path d="M188.504 188.496H184.256V187.696H188.504V188.496ZM180.008 188.496H175.8V187.696H180.048L180.008 188.496ZM171.512 188.496H167.264V187.696H171.512V188.496ZM163.016 188.496H158.768V187.696H163L163.016 188.496ZM154.528 188.496H150.272V187.696H154.528V188.496ZM146.032 188.496H141.784V187.696H146.032V188.496ZM137.536 188.496H133.288V187.696H137.536V188.496Z" fill="black"/>
<path d="M129.04 188.496H126.392L126.312 185.848L127.064 185.824L127.128 187.736H129.04V188.496Z" fill="black"/>
<path d="M126.2 181.6L126.064 177.352H126.864L127 181.6H126.2ZM125.928 173.104L125.784 168.856H126.544L126.68 173.104H125.928ZM125.648 164.608L125.512 160.36H126.264L126.408 164.608H125.648ZM125.368 156.12L125.232 151.872H125.992L126.128 156.12H125.368ZM125.096 147.624L124.952 143.376H125.712L125.848 147.624H125.096ZM124.816 139.12L124.68 134.88H125.432L125.576 139.128L124.816 139.12ZM124.536 130.632L124.4 126.384H125.16L125.296 130.632H124.536Z" fill="black"/>
<path d="M124.232 122.128L124.144 119.464H126.808V120.224H124.928L124.984 122.104L124.232 122.128Z" fill="black"/>
<path d="M186.28 120.224H182.032V119.464H186.28V120.224ZM177.784 120.224H173.536V119.464H177.784V120.224ZM169.288 120.224H165.04V119.464H169.288V120.224ZM160.792 120.224H156.544V119.464H160.792V120.224ZM152.296 120.224H148.048V119.464H152.296V120.224ZM143.8 120.224H139.552V119.464H143.8V120.224ZM135.304 120.224H131.056V119.464H135.304V120.224Z" fill="black"/>
<path d="M192.496 122.128L192.432 120.224H190.528V119.464H193.168L193.256 122.104L192.496 122.128Z" fill="black"/>
<path d="M194.44 181.6L194.304 177.352H195.056L195.2 181.6H194.44ZM194.2 173.104L194.064 168.856H194.824L194.96 173.104H194.2ZM193.928 164.616L193.784 160.368H194.544L194.68 164.616H193.928ZM193.648 156.12L193.512 151.872H194.264L194.408 156.12H193.648ZM193.368 147.624L193.232 143.376H193.992L194.128 147.624H193.368ZM193.096 139.128L192.952 134.88H193.752L193.888 139.128H193.096ZM192.816 130.632L192.68 126.384H193.432L193.576 130.632H192.816Z" fill="black"/>
</g>
<path d="M174.856 164.8H146.928C144.338 164.779 141.855 163.762 139.994 161.96C138.134 160.158 137.039 157.708 136.936 155.12C136.845 152.795 137.622 150.518 139.118 148.735C140.613 146.951 142.718 145.788 145.024 145.472C145.628 143.161 146.983 141.116 148.875 139.657C150.768 138.199 153.091 137.411 155.48 137.416C157.446 137.419 159.379 137.929 161.091 138.895C162.803 139.862 164.238 141.254 165.256 142.936C166.134 142.664 167.048 142.526 167.968 142.528C170.35 142.55 172.642 143.444 174.41 145.04C176.179 146.636 177.302 148.825 177.568 151.192C178.788 151.775 179.827 152.678 180.574 153.805C181.321 154.932 181.747 156.241 181.808 157.592C181.845 158.526 181.692 159.459 181.359 160.332C181.025 161.206 180.519 162.004 179.869 162.676C179.22 163.349 178.441 163.883 177.579 164.247C176.717 164.611 175.791 164.796 174.856 164.792V164.8ZM155.48 139.28C153.404 139.267 151.389 139.98 149.783 141.294C148.176 142.609 147.079 144.443 146.68 146.48L146.544 147.192L145.824 147.24C143.864 147.36 142.028 148.242 140.711 149.699C139.394 151.155 138.699 153.07 138.776 155.032C138.858 157.138 139.749 159.131 141.262 160.597C142.776 162.063 144.797 162.889 146.904 162.904H174.832C175.516 162.91 176.194 162.777 176.825 162.513C177.456 162.249 178.027 161.859 178.503 161.367C178.979 160.876 179.35 160.293 179.594 159.653C179.837 159.014 179.948 158.332 179.92 157.648C179.869 156.56 179.502 155.511 178.864 154.629C178.226 153.747 177.345 153.069 176.328 152.68L175.752 152.456V151.84C175.65 149.837 174.788 147.949 173.341 146.561C171.895 145.172 169.973 144.388 167.968 144.368C167.013 144.366 166.067 144.551 165.184 144.912L164.384 145.232L163.992 144.48C163.184 142.92 161.962 141.611 160.461 140.697C158.96 139.783 157.237 139.298 155.48 139.296V139.28Z" fill="#FF7D7D"/>
<path d="M166.808 155.744L159.104 148.28L151.888 155.744H156.112L156.368 163.456H162.84L162.584 155.744H166.808Z" fill="#FF7D7D"/>
<path d="M288.6 125.44C289.336 126.504 289.928 127.4 290.536 128.392C291.144 129.384 291.72 130.344 292.28 131.344C293.4 133.328 294.44 135.344 295.392 137.456C296.372 139.562 297.237 141.72 297.984 143.92C298.781 146.178 299.412 148.49 299.872 150.84L300.176 152.664L300.216 152.896L300.264 153.184C300.264 153.464 300.328 153.704 300.336 153.984C300.352 154.298 300.352 154.614 300.336 154.928L300.296 155.432L300.208 155.992C300.14 156.389 300.039 156.78 299.904 157.16C299.757 157.582 299.57 157.99 299.344 158.376C298.895 159.159 298.294 159.845 297.576 160.392C296.519 161.195 295.28 161.723 293.968 161.928C293.106 162.069 292.231 162.112 291.36 162.056C290.648 162.023 289.94 161.94 289.24 161.808C288.004 161.57 286.783 161.257 285.584 160.872C283.393 160.138 281.255 159.256 279.184 158.232C277.141 157.247 275.159 156.141 273.248 154.92L275.552 149.816C279.526 150.89 283.553 151.761 287.616 152.424C288.514 152.56 289.42 152.637 290.328 152.656C290.908 152.706 291.493 152.641 292.048 152.464C292.096 152.424 291.912 152.368 291.384 152.72C290.946 153.04 290.612 153.483 290.424 153.992C290.374 154.117 290.334 154.245 290.304 154.376L290.256 154.632C290.258 154.677 290.258 154.723 290.256 154.768V154.664V154.496L289.896 153.152C288.736 149.397 287.231 145.757 285.4 142.28C284.496 140.472 283.504 138.688 282.496 136.92C281.992 136.032 281.472 135.16 280.952 134.288C280.432 133.416 279.872 132.504 279.408 131.776L288.6 125.44Z" fill="#FFB8B8"/>
<path d="M276.432 150.248L272.96 146.792L269.512 154.48C269.512 154.48 272.776 156.296 275.68 154.976L276.432 150.248Z" fill="#FFB8B8"/>
<path d="M267.832 144.032L265.272 150.528L269.504 154.48L272.96 146.792L267.832 144.032Z" fill="#FFB8B8"/>
<path d="M279.545 128.013L212.938 116.28L201.206 182.887L267.812 194.619L279.545 128.013Z" fill="black"/>
<path opacity="0.6" d="M279.545 128.013L212.938 116.28L201.206 182.887L267.812 194.619L279.545 128.013Z" fill="white"/>
<path d="M275.729 130.679L215.606 120.089L205.016 180.211L265.138 190.802L275.729 130.679Z" fill="white"/>
<path opacity="0.3" d="M243.904 150.807C249.003 147.235 250.241 140.206 246.669 135.107C243.098 130.008 236.069 128.77 230.97 132.342C225.871 135.913 224.633 142.942 228.205 148.041C231.776 153.14 238.805 154.378 243.904 150.807Z" fill="black"/>
<path opacity="0.2" d="M251.528 157.984L231.376 172.096L222.112 158.864L206.904 169.512L205.016 180.224L265.136 190.808L267.024 180.104L251.528 157.984Z" fill="black"/>
<path d="M256.712 98.216C256.629 98.2325 256.542 98.2152 256.472 98.168C256.159 97.9306 255.792 97.7736 255.405 97.7109C255.017 97.6481 254.62 97.6815 254.248 97.808C254.17 97.8399 254.083 97.8396 254.006 97.8074C253.929 97.7751 253.868 97.7135 253.836 97.636C253.804 97.5586 253.804 97.4717 253.836 97.3944C253.869 97.3171 253.93 97.2559 254.008 97.224C254.479 97.0673 254.981 97.0247 255.472 97.0998C255.963 97.1749 256.429 97.3655 256.832 97.656C256.899 97.7029 256.946 97.7747 256.961 97.8556C256.976 97.9365 256.958 98.02 256.912 98.088C256.864 98.1548 256.792 98.2006 256.712 98.216Z" fill="black"/>
<path d="M270.256 103.24C269.92 108.152 270.304 118.064 274.056 120.84C274.056 120.84 273.136 124.84 264.232 125.968C254.448 127.192 258.944 121.696 258.944 121.696C264.128 119.744 263.496 115.8 262.096 112.192L270.256 103.24Z" fill="#FFB8B8"/>
<path d="M294.512 315.656H294.456C294.337 315.594 294.241 315.497 294.181 315.378C294.121 315.259 294.099 315.124 294.12 314.992C294.122 314.887 294.148 314.784 294.195 314.689C294.242 314.595 294.309 314.513 294.392 314.448C295.144 313.808 297.336 314.088 297.432 314.096C297.461 314.102 297.488 314.115 297.511 314.135C297.533 314.154 297.55 314.18 297.56 314.208C297.568 314.236 297.568 314.267 297.56 314.295C297.551 314.324 297.534 314.349 297.512 314.368C297 314.784 295.304 315.928 294.512 315.656ZM297.016 314.344C296.272 314.288 295.04 314.28 294.616 314.656C294.568 314.695 294.529 314.743 294.501 314.799C294.473 314.854 294.458 314.914 294.456 314.976C294.456 315.272 294.568 315.328 294.608 315.352C295 315.552 296.208 314.944 297.016 314.344Z" fill="black"/>
<path d="M296.304 314.144C295.504 313.88 294.704 313.424 294.584 312.96C294.552 312.847 294.56 312.726 294.607 312.619C294.654 312.511 294.736 312.422 294.84 312.368C294.938 312.301 295.05 312.256 295.167 312.235C295.284 312.214 295.405 312.219 295.52 312.248C296.488 312.448 297.496 314.08 297.544 314.144C297.56 314.168 297.568 314.196 297.568 314.224C297.568 314.253 297.56 314.28 297.544 314.304C297.532 314.329 297.512 314.35 297.488 314.364C297.464 314.379 297.436 314.385 297.408 314.384C297.031 314.356 296.659 314.275 296.304 314.144ZM295.568 312.584H295.456C295.381 312.564 295.303 312.561 295.227 312.575C295.151 312.589 295.079 312.619 295.016 312.664C294.848 312.776 294.872 312.864 294.88 312.904C295.008 313.328 296.256 313.92 297.096 314.072C296.728 313.449 296.201 312.935 295.568 312.584Z" fill="black"/>
<path d="M245.936 326.592C245.088 326.592 244.272 326.472 243.992 326.096C243.921 325.995 243.883 325.875 243.883 325.752C243.883 325.629 243.921 325.509 243.992 325.408C244.047 325.318 244.119 325.24 244.204 325.179C244.289 325.117 244.385 325.072 244.488 325.048C245.584 324.744 247.896 326.056 247.992 326.112C248.019 326.129 248.041 326.155 248.054 326.185C248.067 326.215 248.07 326.248 248.064 326.28C248.059 326.311 248.046 326.34 248.024 326.363C248.003 326.386 247.974 326.402 247.944 326.408C247.281 326.525 246.609 326.587 245.936 326.592ZM244.888 325.312C244.787 325.299 244.685 325.299 244.584 325.312C244.52 325.326 244.461 325.354 244.408 325.392C244.356 325.431 244.312 325.48 244.28 325.536C244.168 325.728 244.208 325.824 244.28 325.88C244.584 326.304 246.256 326.312 247.48 326.144C246.679 325.698 245.798 325.415 244.888 325.312Z" fill="black"/>
<path d="M247.928 326.4H247.864C247.064 326.048 245.464 324.616 245.608 323.872C245.608 323.696 245.76 323.48 246.192 323.432C246.347 323.417 246.503 323.433 246.652 323.48C246.8 323.526 246.938 323.603 247.056 323.704C247.896 324.392 248.08 326.168 248.08 326.248C248.083 326.274 248.078 326.301 248.067 326.325C248.056 326.349 248.038 326.369 248.016 326.384C247.99 326.401 247.958 326.406 247.928 326.4ZM246.328 323.72H246.2C245.92 323.72 245.904 323.864 245.896 323.896C245.824 324.344 246.896 325.496 247.704 325.952C247.633 325.202 247.331 324.492 246.84 323.92C246.693 323.799 246.51 323.731 246.32 323.728L246.328 323.72Z" fill="black"/>
<path d="M255.184 326.248H248.584L247.928 310.968H254.528L255.184 326.248Z" fill="#FFB8B8"/>
<path d="M304.536 312.312L298.416 313.992L290.584 299.664L296.704 297.984L304.536 312.312Z" fill="#FFB8B8"/>
<path d="M297.496 313.328L304.104 309.944C304.222 309.887 304.355 309.871 304.482 309.899C304.61 309.926 304.725 309.996 304.808 310.096L308.64 314.72C308.732 314.834 308.797 314.967 308.83 315.109C308.864 315.252 308.865 315.4 308.833 315.543C308.802 315.686 308.739 315.82 308.649 315.935C308.558 316.05 308.443 316.143 308.312 316.208C305.992 317.344 304.8 317.808 301.912 319.272C300.128 320.184 294.816 324.136 292.136 324.872C289.456 325.608 288.416 323.008 289.448 322.472C292.834 320.731 295.44 317.777 296.744 314.2C296.878 313.826 297.146 313.515 297.496 313.328Z" fill="#FF7D7D"/>
<path d="M248.6 325.488H255.8C255.93 325.488 256.057 325.533 256.158 325.614C256.26 325.696 256.331 325.809 256.36 325.936L257.664 331.808C257.697 331.95 257.697 332.097 257.664 332.239C257.632 332.381 257.567 332.513 257.475 332.626C257.383 332.739 257.266 332.829 257.134 332.89C257.002 332.95 256.858 332.98 256.712 332.976C254.112 332.936 250.352 332.784 247.112 332.784C243.288 332.784 239.992 332.992 235.512 332.992C232.8 332.992 232.048 330.248 233.184 330C238.344 328.872 242.56 328.752 247.024 326C247.492 325.687 248.038 325.51 248.6 325.488Z" fill="#FF7D7D"/>
<path d="M276.984 133.064C277.672 134.832 278.432 136.56 279.2 138.184C280.512 140.992 281.824 143.44 282.776 145.128C283.624 146.656 284.184 147.528 284.184 147.528L298.584 140.376C298.584 140.376 292.776 123.68 286.712 121.816C280.512 120 273.872 125.104 276.984 133.064Z" fill="#FF7D7D"/>
<path opacity="0.2" d="M283.376 134.712C282.12 135.632 281.224 138.12 280.584 141.04C281.384 142.64 282.184 144.04 282.776 145.128C283.624 146.656 284.184 147.528 284.184 147.528L285.832 146.728C285.8 142.601 284.966 138.52 283.376 134.712Z" fill="black"/>
<path d="M246.504 143.712C246.504 145.952 246.56 148.424 246.68 151.152C247.008 158.552 247.816 167.776 249.36 179.24H284.656C284.904 173.824 281.496 147.384 286.728 121.848C282.822 121.1 278.873 120.603 274.904 120.36C269.905 120.072 264.894 120.072 259.896 120.36C256.47 120.712 253.077 121.325 249.744 122.192C249.744 122.192 246.496 125.864 246.504 143.712Z" fill="#FF7D7D"/>
<path d="M255.584 133.232C255.06 134.33 254.475 135.398 253.832 136.432C253.248 137.376 252.656 138.288 252.048 139.168C250.832 140.928 249.56 142.624 248.224 144.28C245.535 147.641 242.555 150.76 239.32 153.6C237.595 155.112 235.746 156.477 233.792 157.68L232.992 158.144L232.784 158.256L232.496 158.4L231.912 158.68C231.161 159.034 230.372 159.303 229.56 159.48C228.123 159.769 226.651 159.844 225.192 159.704C222.757 159.414 220.391 158.702 218.2 157.6C217.186 157.103 216.206 156.542 215.264 155.92C214.31 155.302 213.399 154.62 212.536 153.88L215.368 149.08C218.832 149.992 222.736 150.808 225.424 150.424C225.98 150.371 226.522 150.219 227.024 149.976C227.189 149.895 227.345 149.796 227.488 149.68L227.56 149.608H227.608L227.72 149.52L228.208 149.184C229.578 148.141 230.877 147.008 232.096 145.792C234.708 143.149 237.137 140.332 239.368 137.36C240.512 135.864 241.616 134.328 242.68 132.784C243.2 131.984 243.72 131.248 244.2 130.488C244.68 129.728 245.16 128.952 245.408 128.464L255.584 133.232Z" fill="#FFB8B8"/>
<path d="M216.776 149.744L210.688 146.856L210.136 155.024C210.136 155.024 214.872 155.824 217.376 153.992L216.776 149.744Z" fill="#FFB8B8"/>
<path d="M203.016 148.248L205.36 154.472L210.136 155.024L210.688 146.856L203.016 148.248Z" fill="#FFB8B8"/>
<path d="M259.944 128.904C259.736 135.216 246.744 149.744 246.744 149.744L233.024 140.8C233.024 140.8 237.4 132.64 243 126.744C251.552 117.864 260.192 121.336 259.944 128.904Z" fill="#FF7D7D"/>
<path opacity="0.2" d="M247.928 310.968L248.264 318.848H254.872L254.536 310.968H247.928Z" fill="black"/>
<path opacity="0.2" d="M296.704 297.984L290.584 299.672L294.624 307.056L300.744 305.368L296.704 297.984Z" fill="black"/>
<path d="M272.6 99.712C272.336 106.256 272.52 110.112 269.288 113.528C264.424 118.672 256.296 115.848 254.6 109.36C253.072 103.512 253.76 93.792 260.104 91.056C261.5 90.4449 263.029 90.2011 264.545 90.3481C266.062 90.495 267.516 91.0276 268.769 91.8953C270.021 92.763 271.031 93.9368 271.702 95.305C272.372 96.6733 272.681 98.1904 272.6 99.712Z" fill="#FFB8B8"/>
<path d="M259.536 102.832C257.176 101.152 254.864 97.688 255.048 95.112C252.864 95.024 251.4 91.424 252.6 88.8C253.352 90.488 255.952 89.248 256.968 87.912C256.424 86.624 256.512 84.488 260.248 82.976C259.936 84.064 260.096 85.896 263.848 84.576C268.4 82.976 276.4 84.048 274.056 89.464C277.256 90.048 281.424 96.664 277.888 100.144C274.352 103.624 273.624 109.248 270.6 109.824C267.576 110.4 259.712 110.6 259.536 102.832Z" fill="black"/>
<path d="M271.928 89.248C273.2 88.7186 274.614 88.6335 275.941 89.0065C277.267 89.3796 278.43 90.189 279.24 91.304C276.938 90.2052 274.465 89.5098 271.928 89.248Z" fill="black"/>
<path d="M261.256 102.552C261.19 104.006 260.648 105.397 259.712 106.512C258.464 107.968 257.096 107.12 256.816 105.4C256.568 103.856 256.92 101.232 258.472 100.408C260.024 99.584 261.312 100.8 261.256 102.552Z" fill="#FFB8B8"/>
<path d="M261.88 179.24C261.88 179.24 258.768 229.184 264.672 247.6C274.016 276.768 290.688 306.568 290.688 306.568L302.608 302.984C302.608 302.984 289.496 271.528 285.184 246.984C281.312 224.912 284.656 197.296 284.656 179.264L261.88 179.24Z" fill="black"/>
<path opacity="0.2" d="M261.4 190.4C264.728 189.432 267.328 189.8 268 192.76C269.76 200.496 264.48 220.904 261.848 230.24C260.76 216.8 261.008 200.8 261.4 190.4Z" fill="black"/>
<path d="M287.32 303.152C287.272 303.152 290.432 306.84 290.432 306.84L303.456 302.92L301.8 298.52L287.32 303.152Z" fill="#FF7D7D"/>
<path d="M249.4 179.24C249.4 179.24 239.456 221.376 238.752 241.504C237.952 264.08 245.848 317.32 245.848 317.32H257.048C257.048 317.32 258.424 263.664 258.92 243.104C259.464 220.704 272.616 179.24 272.616 179.24H249.4Z" fill="black"/>
<path d="M243.656 312.872C243.608 312.872 244.288 317.512 244.288 317.512H257.888L258.256 313.368L243.656 312.872Z" fill="#FF7D7D"/>
<path d="M254.296 118.816C255.816 118.288 267.344 116.824 275.712 117.272C280.512 117.528 283.184 118.072 285.136 118.992C287.088 119.912 283.592 124.688 281.976 125.272C282.632 127.096 278.992 129.424 276.92 130.528C276.12 132.24 267.904 133.824 263.104 130.144C259.416 127.312 249.984 120.312 254.296 118.816Z" fill="black"/>
</svg>
