<svg width="16" height="17" viewBox="0 0 16 17" fill="none" xmlns="http://www.w3.org/2000/svg">
<g id="chevron-left">
<path id="Vector" fill-rule="evenodd" clip-rule="evenodd" d="M1.64592 5.14596C1.69236 5.0994 1.74754 5.06246 1.80828 5.03725C1.86903 5.01204 1.93415 4.99907 1.99992 4.99907C2.06568 4.99907 2.13081 5.01204 2.19155 5.03725C2.2523 5.06246 2.30747 5.0994 2.35392 5.14596L7.99992 10.793L13.6459 5.14596C13.7398 5.05207 13.8671 4.99933 13.9999 4.99933C14.1327 4.99933 14.26 5.05207 14.3539 5.14596C14.4478 5.23985 14.5005 5.36718 14.5005 5.49996C14.5005 5.63274 14.4478 5.76007 14.3539 5.85396L8.35392 11.854C8.30747 11.9005 8.2523 11.9375 8.19155 11.9627C8.13081 11.9879 8.06568 12.0009 7.99992 12.0009C7.93415 12.0009 7.86903 11.9879 7.80828 11.9627C7.74754 11.9375 7.69236 11.9005 7.64592 11.854L1.64592 5.85396C1.59935 5.80752 1.56241 5.75234 1.5372 5.69159C1.512 5.63085 1.49902 5.56573 1.49902 5.49996C1.49902 5.43419 1.512 5.36907 1.5372 5.30833C1.56241 5.24758 1.59935 5.19241 1.64592 5.14596Z" fill="black" stroke="black" stroke-width="0.5"/>
</g>
</svg>
