<svg width="17" height="17" viewBox="0 0 17 17" fill="none" xmlns="http://www.w3.org/2000/svg">
<g id="chevron-left">
<path id="Vector" fill-rule="evenodd" clip-rule="evenodd" d="M11.8539 2.14598C11.9005 2.19242 11.9374 2.2476 11.9626 2.30834C11.9878 2.36909 12.0008 2.43421 12.0008 2.49998C12.0008 2.56575 11.9878 2.63087 11.9626 2.69161C11.9374 2.75236 11.9005 2.80753 11.8539 2.85398L6.20692 8.49998L11.8539 14.146C11.9478 14.2399 12.0005 14.3672 12.0005 14.5C12.0005 14.6328 11.9478 14.7601 11.8539 14.854C11.76 14.9479 11.6327 15.0006 11.4999 15.0006C11.3671 15.0006 11.2398 14.9479 11.1459 14.854L5.14592 8.85398C5.09935 8.80753 5.06241 8.75236 5.0372 8.69161C5.012 8.63087 4.99902 8.56575 4.99902 8.49998C4.99902 8.43421 5.012 8.36909 5.0372 8.30834C5.06241 8.2476 5.09935 8.19242 5.14592 8.14598L11.1459 2.14598C11.1924 2.09942 11.2475 2.06247 11.3083 2.03727C11.369 2.01206 11.4341 1.99908 11.4999 1.99908C11.5657 1.99908 11.6308 2.01206 11.6916 2.03727C11.7523 2.06247 11.8075 2.09942 11.8539 2.14598Z" fill="black" stroke="black" stroke-width="0.5"/>
</g>
</svg>
