<svg width="390" height="341" viewBox="0 0 390 341" fill="none" xmlns="http://www.w3.org/2000/svg">
<path d="M165.974 328.443C166.498 332.553 168.424 336.313 170.48 339.935C170.548 340.058 170.618 340.179 170.689 340.303H192.051C192.483 340.19 192.91 340.067 193.334 339.935C195.747 339.199 198.025 338.077 200.079 336.613C207.938 330.944 210.962 320.233 209.596 310.635C208.747 304.672 206.133 298.584 201.043 295.373C198.278 293.687 194.98 293.109 191.808 293.753C191.727 293.768 191.647 293.786 191.564 293.803C190.244 294.058 188.992 294.591 187.892 295.365C186.792 296.139 185.868 297.138 185.181 298.295C182.755 302.611 184.199 307.957 185.393 312.761C186.582 317.564 187.227 323.314 183.775 326.857C184.281 325.375 184.384 323.785 184.072 322.251C183.761 320.716 183.048 319.292 182.005 318.125C180.962 316.958 179.628 316.09 178.139 315.611C176.65 315.131 175.06 315.057 173.533 315.396C173.283 315.45 173.037 315.511 172.794 315.584C172.208 315.756 171.642 315.993 171.108 316.291C167.036 318.567 165.387 323.811 165.974 328.443Z" fill="white"/>
<path d="M178.64 339.935C178.048 340.073 177.454 340.194 176.857 340.303H180.087C180.51 340.189 180.931 340.067 181.348 339.935C182.265 339.648 183.169 339.318 184.058 338.946C187.664 337.481 190.866 335.169 193.395 332.207C194.61 330.757 195.603 329.134 196.34 327.39C197.139 325.42 197.647 323.344 197.847 321.227C198.214 316.85 197.921 312.444 196.98 308.154C196.094 303.733 194.663 299.438 192.722 295.369C192.488 294.881 192.247 294.397 191.998 293.915C191.98 293.875 191.955 293.84 191.922 293.812C191.889 293.784 191.85 293.764 191.808 293.753C191.723 293.737 191.636 293.755 191.564 293.803C191.478 293.852 191.414 293.933 191.386 294.028C191.357 294.123 191.366 294.226 191.411 294.315C193.413 298.223 194.931 302.361 195.93 306.638C196.959 310.833 197.411 315.148 197.274 319.466C197.2 323.481 195.948 327.386 193.674 330.694C191.463 333.673 188.554 336.063 185.203 337.653C183.107 338.656 180.906 339.422 178.64 339.935Z" fill="#C1BEBE"/>
<path d="M171.551 340.303H172.504C172.61 340.181 172.713 340.058 172.814 339.934C174.983 337.296 176.453 334.153 177.087 330.795C177.856 326.605 177.258 322.278 175.379 318.455C174.855 317.383 174.237 316.359 173.533 315.396C173.283 315.45 173.037 315.51 172.794 315.584C175.484 319.12 176.863 323.482 176.696 327.923C176.53 332.365 174.827 336.61 171.88 339.934C171.774 340.058 171.663 340.181 171.551 340.303Z" fill="white"/>
<path d="M371.901 114.518L276.098 149.301L234.612 34.7835L330.415 0L371.901 114.518Z" fill="#F1F1F1"/>
<path d="M368.497 105.123C370.377 110.313 367.696 116.044 362.508 117.928L285.505 145.886C280.311 147.772 274.572 145.088 272.69 139.893L238.016 44.1788C236.136 38.9889 238.817 33.257 244.005 31.3732L321.008 3.41522C326.202 1.52944 331.941 4.21355 333.823 9.40879L368.497 105.123Z" fill="#BCBCBC"/>
<path d="M330.806 55.5627L276.032 75.4498L276.971 78.0424L331.746 58.1553L330.806 55.5627Z" fill="white"/>
<path d="M333.248 62.3035L278.474 82.1907L279.413 84.7833L334.188 64.8961L333.248 62.3035Z" fill="white"/>
<path d="M335.69 69.0442L280.916 88.9314L281.855 91.524L336.629 71.6369L335.69 69.0442Z" fill="white"/>
<path d="M272.187 80.5427C273.179 80.5427 273.984 79.7368 273.984 78.7428C273.984 77.7488 273.179 76.943 272.187 76.943C271.194 76.943 270.389 77.7488 270.389 78.7428C270.389 79.7368 271.194 80.5427 272.187 80.5427Z" fill="white"/>
<path d="M320.284 26.5168L265.51 46.404L266.449 48.9966L321.223 29.1095L320.284 26.5168Z" fill="white"/>
<path d="M322.726 33.2576L267.952 53.1447L268.891 55.7373L323.665 35.8502L322.726 33.2576Z" fill="white"/>
<path d="M325.168 39.9985L270.394 59.8856L271.333 62.4782L326.107 42.5911L325.168 39.9985Z" fill="white"/>
<path d="M261.562 51.2148C262.555 51.2148 263.36 50.409 263.36 49.415C263.36 48.421 262.555 47.6152 261.562 47.6152C260.569 47.6152 259.764 48.421 259.764 49.415C259.764 50.409 260.569 51.2148 261.562 51.2148Z" fill="white"/>
<path d="M341.431 84.8907L286.657 104.778L287.596 107.37L342.371 87.4833L341.431 84.8907Z" fill="white"/>
<path d="M343.873 91.6314L289.099 111.519L290.038 114.111L344.812 94.224L343.873 91.6314Z" fill="white"/>
<path d="M346.315 98.3722L291.541 118.259L292.48 120.852L347.254 100.965L346.315 98.3722Z" fill="white"/>
<path d="M282.709 109.589C283.702 109.589 284.507 108.783 284.507 107.789C284.507 106.795 283.702 105.989 282.709 105.989C281.716 105.989 280.911 106.795 280.911 107.789C280.911 108.783 281.716 109.589 282.709 109.589Z" fill="white"/>
<path d="M376.298 139.291C376.298 144.814 371.82 149.291 366.298 149.291H284.389C278.866 149.291 274.389 144.814 274.389 139.291V37.4746C274.389 31.9518 278.866 27.4746 284.389 27.4746H366.298C371.82 27.4746 376.298 31.9518 376.298 37.4746V139.291Z" fill="white"/>
<path d="M376.298 139.291C376.298 144.814 371.82 149.291 366.298 149.291H284.389C278.866 149.291 274.389 144.814 274.389 139.291V37.4746C274.389 31.9518 278.866 27.4746 284.389 27.4746H366.298C371.82 27.4746 376.298 31.9518 376.298 37.4746V139.291ZM276.187 137.491C276.187 143.014 280.664 147.491 286.187 147.491H364.5C370.023 147.491 374.5 143.014 374.5 137.491V39.2744C374.5 33.7516 370.023 29.2744 364.5 29.2744H286.187C280.664 29.2744 276.187 33.7516 276.187 39.2744V137.491Z" fill="#E5E5E5"/>
<path d="M341.718 72.499H316.172C315.812 72.4986 315.467 72.3551 315.212 72.1001C314.957 71.8451 314.814 71.4993 314.813 71.1387V45.5649C314.814 45.2043 314.957 44.8585 315.212 44.6035C315.467 44.3485 315.812 44.2051 316.172 44.2047H341.718C342.078 44.2051 342.423 44.3485 342.678 44.6035C342.933 44.8585 343.076 45.2043 343.076 45.5649V71.1387C343.076 71.4994 342.933 71.8451 342.678 72.1001C342.423 72.3551 342.078 72.4986 341.718 72.499ZM316.172 44.7488C315.956 44.749 315.749 44.8351 315.596 44.9881C315.443 45.1411 315.357 45.3486 315.357 45.5649V71.1387C315.357 71.3551 315.443 71.5626 315.596 71.7156C315.749 71.8686 315.956 71.9546 316.172 71.9549H341.718C341.934 71.9546 342.141 71.8686 342.294 71.7156C342.447 71.5626 342.533 71.3551 342.533 71.1387V45.565C342.533 45.3486 342.447 45.1411 342.294 44.9881C342.141 44.8351 341.934 44.749 341.718 44.7488H316.172Z" fill="#E5E5E5"/>
<path d="M334.379 75.6277H308.834C308.51 75.6273 308.199 75.4982 307.97 75.2687C307.741 75.0392 307.612 74.728 307.611 74.4034V48.8297C307.612 48.5051 307.741 48.1939 307.97 47.9644C308.199 47.7349 308.51 47.6058 308.834 47.6054H334.38C334.704 47.6058 335.015 47.7349 335.244 47.9644C335.473 48.1939 335.602 48.5051 335.602 48.8297V74.4034C335.602 74.728 335.473 75.0392 335.244 75.2687C335.015 75.4982 334.704 75.6273 334.379 75.6277Z" fill="#050404" fill-opacity="0.8"/>
<path d="M360.987 86.465H289.701V89.2229H360.987V86.465Z" fill="#F1F1F1"/>
<path d="M360.987 93.6555H289.701V96.4134H360.987V93.6555Z" fill="#F1F1F1"/>
<path d="M360.987 100.846H289.701V103.604H360.987V100.846Z" fill="#F1F1F1"/>
<path d="M360.987 113.502H289.701V116.259H360.987V113.502Z" fill="#F1F1F1"/>
<path d="M360.987 120.692H289.701V123.45H360.987V120.692Z" fill="#F1F1F1"/>
<path d="M360.987 127.883H289.701V130.64H360.987V127.883Z" fill="#F1F1F1"/>
<path d="M85.2895 333.145H92.7866L96.3537 304.194L85.2881 304.195L85.2895 333.145Z" fill="#FFB8B8"/>
<path d="M83.3765 330.695L98.1416 330.694C100.637 330.694 103.031 331.687 104.796 333.453C106.56 335.22 107.552 337.616 107.552 340.114V340.42L83.3769 340.421L83.3765 330.695Z" fill="#2F2E41"/>
<path d="M32.7808 328.004L40.0585 329.808L50.4686 302.563L39.7276 299.901L32.7808 328.004Z" fill="#FFB8B8"/>
<path d="M31.5125 325.166L45.8453 328.717C48.2677 329.317 50.3532 330.856 51.6421 332.995C52.9311 335.135 53.3185 337.699 52.719 340.124L52.6456 340.421L29.1787 334.607L31.5125 325.166Z" fill="#2F2E41"/>
<path d="M60.516 210.314L53.9234 247.883C53.9234 247.883 51.3878 252.452 52.402 254.483C53.4163 256.514 53.9234 256.514 52.402 257.529C50.8807 258.544 48.8522 257.529 49.3593 260.067C49.6632 261.572 49.8329 263.102 49.8664 264.637L35.6669 313.375C35.6669 313.375 26.5387 317.436 33.1313 319.975C39.7239 322.513 46.3165 324.544 47.8379 322.006C49.3592 319.467 47.8379 316.421 47.8379 316.421L71.1656 260.575C71.1656 260.575 74.7154 255.498 74.7154 252.452C74.7154 249.406 86.3793 227.575 86.3793 227.575C86.3793 227.575 86.8864 249.406 87.3936 250.929C87.9007 252.452 86.3793 255.498 86.3793 257.529C86.3793 259.56 85.3651 259.56 86.3793 260.575C87.3936 261.59 87.3936 273.267 87.3936 273.267C87.3936 273.267 81.3081 318.452 84.858 318.959C88.4078 319.467 98.5503 318.452 98.5503 316.421C98.5947 315.892 98.4716 315.362 98.1986 314.906C97.9256 314.451 97.5164 314.092 97.029 313.883L103.622 275.298C103.345 273.758 103.521 272.171 104.129 270.729C105.143 268.698 105.143 268.698 105.143 267.683C105.143 266.667 104.636 266.16 105.143 265.652C105.474 265.214 105.652 264.679 105.65 264.129C105.65 264.129 104.636 261.083 105.143 260.575C105.65 260.067 116.807 221.991 113.257 217.421C109.707 212.852 60.516 210.314 60.516 210.314Z" fill="#2F2E41"/>
<path d="M83.1969 129.241C90.4789 129.241 96.3821 123.332 96.3821 116.042C96.3821 108.751 90.4789 102.842 83.1969 102.842C75.9149 102.842 70.0117 108.751 70.0117 116.042C70.0117 123.332 75.9149 129.241 83.1969 129.241Z" fill="#FFB8B8"/>
<path d="M73.8807 125.601C74.5587 125.145 74.585 124.104 74.3577 123.259C74.0313 122.448 73.8274 121.594 73.7528 120.723C73.8498 118.368 77.0903 117.423 77.2754 115.079C77.3893 113.638 76.2719 112.044 76.9167 110.796C77.3239 110.007 78.2709 109.745 79.1332 109.593C82.4801 109.015 85.9049 109.061 89.235 109.729L89.7208 108.451L92.1887 110.082C92.3235 109.289 93.4197 109.209 94.1362 109.59C94.8527 109.97 95.4729 110.627 96.2547 110.754C97.5008 110.957 98.4858 109.606 98.42 108.306C98.2344 106.991 97.6447 105.766 96.7325 104.801C94.6571 102.228 92.1393 100.046 89.2978 98.3583L89.9826 97.123L88.5161 97.7126L88.3551 96.2351L86.9263 97.0391L86.906 95.7084C85.3763 97.4669 82.7122 97.4063 80.3737 97.5648C76.4642 97.746 72.7086 99.1439 69.6304 101.564C68.0938 102.82 66.8353 104.382 65.9351 106.152C65.035 107.922 64.5129 109.86 64.4021 111.843C64.2693 114.948 65.3387 118.728 67.6291 121.03C69.7109 123.124 72.7955 121.853 73.8807 125.601Z" fill="#2F2E41"/>
<path d="M115.55 244.111C114.88 243.482 114.357 242.715 114.016 241.861C113.675 241.008 113.525 240.091 113.576 239.173C113.628 238.256 113.88 237.361 114.314 236.552C114.749 235.742 115.355 235.038 116.091 234.488L112.574 220.563L120.506 216.36L125.196 236.095C126.036 237.393 126.371 238.955 126.138 240.484C125.904 242.014 125.119 243.404 123.93 244.392C122.741 245.38 121.231 245.898 119.686 245.846C118.142 245.794 116.67 245.177 115.55 244.111Z" fill="#FFB8B8"/>
<path d="M94.3515 226.09C78.3242 226.091 63.5712 218.829 63.372 218.73L63.2066 218.647L61.8616 186.333C61.4716 185.191 53.7916 162.659 52.4909 155.497C51.173 148.241 70.273 141.873 72.5923 141.128L73.1187 135.291L94.5226 132.982L97.2353 140.451L104.914 143.333C105.785 143.66 106.505 144.296 106.939 145.119C107.373 145.942 107.49 146.896 107.268 147.8L103 165.175L111.395 222.66L111.18 222.757C105.87 225.051 100.134 226.187 94.3515 226.09Z" fill="#FF7D7D"/>
<path d="M113.487 229.697L106.059 199.084L98.0083 162.143L102.095 143.732H105.589C105.653 143.732 112.002 143.827 113.369 152.037C114.693 159.99 118.686 185.3 118.726 185.555L125.474 228.791L113.487 229.697Z" fill="#FF7D7D"/>
<path d="M214.088 341H-51.3034C-51.4882 341 -51.6654 340.926 -51.796 340.796C-51.9266 340.665 -52 340.488 -52 340.303C-52 340.118 -51.9266 339.94 -51.796 339.809C-51.6654 339.679 -51.4882 339.605 -51.3034 339.605H214.088C214.272 339.605 214.449 339.679 214.58 339.809C214.711 339.94 214.784 340.118 214.784 340.303C214.784 340.488 214.711 340.665 214.58 340.796C214.449 340.926 214.272 341 214.088 341Z" fill="#CBCBCB"/>
<path d="M105.758 262.446C102.744 267.079 96.5442 268.389 91.9142 265.371L40.399 231.789C35.7757 228.776 34.468 222.586 37.4771 217.96L81.253 150.657C84.2664 146.024 90.4668 144.714 95.0967 147.732L146.612 181.314C151.235 184.328 152.543 190.517 149.534 195.143L105.758 262.446Z" fill="white"/>
<path d="M105.758 262.446C102.744 267.079 96.5442 268.389 91.9142 265.371L40.399 231.789C35.7757 228.776 34.468 222.586 37.4771 217.96L81.253 150.657C84.2664 146.024 90.4668 144.714 95.0967 147.732L146.612 181.314C151.235 184.328 152.543 190.517 149.534 195.143L105.758 262.446ZM39.5257 217.526C36.5166 222.153 37.8243 228.342 42.4476 231.356L91.4814 263.32C96.1113 266.338 102.312 265.028 105.325 260.395L147.485 195.577C150.494 190.95 149.187 184.761 144.563 181.747L95.5295 149.783C90.8996 146.765 84.6992 148.075 81.6858 152.708L39.5257 217.526Z" fill="#E5E5E5"/>
<path d="M80.5187 189.692L79.2808 191.596L117.431 216.465L118.669 214.562L80.5187 189.692Z" fill="black"/>
<path d="M77.3004 194.642L76.0625 196.545L114.213 221.415L115.451 219.512L77.3004 194.642Z" fill="black"/>
<path d="M74.0812 199.589L72.8433 201.493L110.994 226.362L112.232 224.459L74.0812 199.589Z" fill="black"/>
<path d="M76.4493 190.274C77.267 190.274 77.9299 189.611 77.9299 188.792C77.9299 187.973 77.267 187.31 76.4493 187.31C75.6316 187.31 74.9688 187.973 74.9688 188.792C74.9688 189.611 75.6316 190.274 76.4493 190.274Z" fill="black"/>
<path d="M94.3878 168.37L93.1499 170.273L131.3 195.142L132.538 193.239L94.3878 168.37Z" fill="#E5E5E5"/>
<path d="M91.1691 173.318L89.9312 175.221L128.082 200.091L129.32 198.188L91.1691 173.318Z" fill="#E5E5E5"/>
<path d="M87.9508 178.268L86.7129 180.171L124.863 205.04L126.101 203.137L87.9508 178.268Z" fill="#E5E5E5"/>
<path d="M90.4527 168.744C91.2704 168.744 91.9333 168.081 91.9333 167.262C91.9333 166.443 91.2704 165.78 90.4527 165.78C89.635 165.78 88.9722 166.443 88.9722 167.262C88.9722 168.081 89.635 168.744 90.4527 168.744Z" fill="#E5E5E5"/>
<path d="M66.5153 211.222L65.2773 213.126L103.428 237.995L104.666 236.092L66.5153 211.222Z" fill="#E5E5E5"/>
<path d="M63.2965 216.171L62.0586 218.074L100.209 242.944L101.447 241.04L63.2965 216.171Z" fill="#E5E5E5"/>
<path d="M60.0778 221.119L58.8398 223.022L96.9903 247.892L98.2283 245.989L60.0778 221.119Z" fill="#E5E5E5"/>
<path d="M62.5802 211.597C63.3979 211.597 64.0608 210.933 64.0608 210.115C64.0608 209.296 63.3979 208.633 62.5802 208.633C61.7625 208.633 61.0996 209.296 61.0996 210.115C61.0996 210.933 61.7625 211.597 62.5802 211.597Z" fill="#E5E5E5"/>
<path d="M81.703 224.524C81.6596 223.606 81.4157 222.709 80.9884 221.895C80.5612 221.082 79.961 220.372 79.2302 219.816C78.4994 219.261 77.6557 218.872 76.7586 218.678C75.8615 218.483 74.9327 218.488 74.0378 218.692L65.7351 206.979L57.394 210.294L69.3511 226.671C69.7931 228.153 70.7629 229.422 72.0767 230.236C73.3906 231.051 74.9573 231.354 76.4798 231.09C78.0023 230.825 79.375 230.01 80.3377 228.8C81.3003 227.59 81.7861 226.068 81.703 224.524Z" fill="#FFB8B8"/>
<path d="M65.5214 223.655L40.3989 191.028L49.8121 161.411C50.5019 153.965 55.1562 151.885 55.3542 151.8L55.6563 151.671L63.8475 173.539L57.8333 189.595L72.5951 214.45L65.5214 223.655Z" fill="#FF7D7D"/>
<path d="M190.474 216.873H186.294V218.268H190.474V216.873Z" fill="#CBCBCB"/>
<path d="M308.147 218.268H299.741V216.873H308.147V218.268ZM291.336 218.268H282.931V216.873H291.336L291.336 218.268ZM274.526 218.268H266.121V216.873H274.526V218.268ZM257.715 218.268H249.31V216.873H257.715V218.268ZM240.905 218.268H232.5V216.873H240.905V218.268ZM224.095 218.268H215.689V216.873H224.095V218.268ZM207.284 218.268H198.879V216.873H207.284V218.268Z" fill="#CBCBCB"/>
<path d="M321.428 218.268H316.552V216.873H320.035V213.387H321.428V218.268Z" fill="#CBCBCB"/>
<path d="M321.428 204.921H320.035V209.154H321.428V204.921Z" fill="#CBCBCB"/>
<path d="M321.428 196.504H320.035V200.688H321.428V196.504Z" fill="#CBCBCB"/>
</svg>
