<svg width="17" height="17" viewBox="0 0 17 17" fill="none" xmlns="http://www.w3.org/2000/svg">
<g id="chevron-left">
<path id="Vector" fill-rule="evenodd" clip-rule="evenodd" d="M5.14608 14.854C5.09952 14.8076 5.06258 14.7524 5.03737 14.6917C5.01216 14.6309 4.99919 14.5658 4.99919 14.5C4.99919 14.4343 5.01216 14.3691 5.03737 14.3084C5.06258 14.2476 5.09952 14.1925 5.14608 14.146L10.7931 8.50002L5.14608 2.85402C5.0522 2.76014 4.99945 2.6328 4.99945 2.50002C4.99945 2.36725 5.0522 2.23991 5.14608 2.14602C5.23997 2.05213 5.36731 1.99939 5.50008 1.99939C5.63286 1.99939 5.7602 2.05213 5.85408 2.14602L11.8541 8.14602C11.9006 8.19247 11.9376 8.24764 11.9628 8.30839C11.988 8.36913 12.001 8.43425 12.001 8.50002C12.001 8.56579 11.988 8.63091 11.9628 8.69166C11.9376 8.7524 11.9006 8.80758 11.8541 8.85402L5.85408 14.854C5.80764 14.9006 5.75246 14.9375 5.69172 14.9627C5.63097 14.9879 5.56585 15.0009 5.50008 15.0009C5.43432 15.0009 5.36919 14.9879 5.30845 14.9627C5.2477 14.9375 5.19253 14.9006 5.14608 14.854Z" fill="black" stroke="black" stroke-width="0.5"/>
</g>
</svg>
