<svg width="30" height="30" viewBox="0 0 30 30" fill="none" xmlns="http://www.w3.org/2000/svg">
<g id="Frame 732">
<rect width="30" height="30" rx="15" fill="white"/>
<path id="Vector" d="M14.75 21.1541C11.58 21.1541 9 18.5741 9 15.4041C9 14.2641 9.33 13.1541 9.97 12.2141C10.2 11.8741 10.67 11.7741 11.01 12.0041C11.35 12.2341 11.45 12.7041 11.22 13.0441C10.75 13.7441 10.51 14.5641 10.51 15.4041C10.51 17.7441 12.42 19.6541 14.76 19.6541C17.1 19.6541 19.01 17.7441 19.01 15.4041C19.01 13.1641 17.27 11.3241 15.07 11.1641L15.48 11.4641C15.81 11.7041 15.89 12.1741 15.64 12.5141C15.4 12.8441 14.93 12.9241 14.59 12.6741L12.65 11.2641C12.58 11.2141 12.52 11.1541 12.47 11.0841C12.46 11.0741 12.45 11.0641 12.44 11.0441C12.4 10.9741 12.37 10.8941 12.35 10.8141C12.33 10.7141 12.33 10.6241 12.34 10.5241C12.35 10.4841 12.36 10.4441 12.37 10.4041C12.39 10.3341 12.43 10.2741 12.47 10.2041C12.49 10.1941 12.51 10.1741 12.53 10.1541L14.19 8.25411C14.46 7.94411 14.94 7.91411 15.25 8.18411C15.56 8.45411 15.59 8.93411 15.32 9.24411L14.95 9.67411C18.03 9.77411 20.51 12.3141 20.51 15.4241C20.5 18.5741 17.92 21.1541 14.75 21.1541Z" fill="black"/>
</g>
</svg>
