<svg width="30" height="30" viewBox="0 0 30 30" fill="none" xmlns="http://www.w3.org/2000/svg">
<rect width="30" height="30" rx="15" fill="white"/>
<path d="M19.299 10.8524L15.8807 9.32995C15.379 9.10828 14.6207 9.10828 14.119 9.32995L10.7007 10.8524C9.83732 11.2374 9.70898 11.7624 9.70898 12.0424C9.70898 12.3224 9.83732 12.8474 10.7007 13.2324L14.119 14.7549C14.3698 14.8658 14.6848 14.9241 14.9998 14.9241C15.3148 14.9241 15.6298 14.8658 15.8807 14.7549L19.299 13.2324C20.1623 12.8474 20.2907 12.3224 20.2907 12.0424C20.2907 11.7624 20.1682 11.2374 19.299 10.8524Z" fill="black"/>
<path d="M15.0002 17.94C14.7785 17.94 14.5568 17.8933 14.3527 17.8058L10.421 16.0558C9.82018 15.7875 9.35352 15.07 9.35352 14.4108C9.35352 14.1716 9.54602 13.9791 9.78518 13.9791C10.0243 13.9791 10.2168 14.1716 10.2168 14.4108C10.2168 14.7258 10.4793 15.1341 10.771 15.2625L14.7027 17.0125C14.8893 17.0941 15.1052 17.0941 15.2918 17.0125L19.2235 15.2625C19.5152 15.1341 19.7777 14.7316 19.7777 14.4108C19.7777 14.1716 19.9702 13.9791 20.2093 13.9791C20.4485 13.9791 20.641 14.1716 20.641 14.4108C20.641 15.0641 20.1743 15.7875 19.5735 16.0558L15.6418 17.8058C15.4435 17.8933 15.2218 17.94 15.0002 17.94Z" fill="black"/>
<path d="M15.0002 20.8334C14.7785 20.8334 14.5568 20.7867 14.3527 20.6992L10.421 18.9492C9.77352 18.6634 9.35352 18.0159 9.35352 17.3042C9.35352 17.0651 9.54602 16.8726 9.78518 16.8726C10.0243 16.8726 10.2168 17.0651 10.2168 17.3042C10.2168 17.6717 10.4327 18.0042 10.771 18.1559L14.7027 19.9059C14.8893 19.9876 15.1052 19.9876 15.2918 19.9059L19.2235 18.1559C19.556 18.0101 19.7777 17.6717 19.7777 17.3042C19.7777 17.0651 19.9702 16.8726 20.2093 16.8726C20.4485 16.8726 20.641 17.0651 20.641 17.3042C20.641 18.0159 20.221 18.6576 19.5735 18.9492L15.6418 20.6992C15.4435 20.7867 15.2218 20.8334 15.0002 20.8334Z" fill="black"/>
</svg>
