<svg width="30" height="30" viewBox="0 0 30 30" fill="none" xmlns="http://www.w3.org/2000/svg">
<g id="Frame 733">
<rect width="30" height="30" rx="15" fill="white"/>
<path id="Vector" d="M15 9L15 21M15 9L11.4001 9C10.5601 9 10.1397 9 9.81885 9.16349C9.5366 9.3073 9.3073 9.5366 9.16349 9.81885C9 10.1397 9 10.5601 9 11.4001V18.6001C9 19.4402 9 19.8597 9.16349 20.1805C9.3073 20.4628 9.5366 20.6929 9.81885 20.8367C10.1394 21 10.5593 21 11.3977 21H15M15 9L18.6001 9C19.4402 9 19.8597 9 20.1805 9.16349C20.4628 9.3073 20.6929 9.5366 20.8367 9.81885C21 10.1394 21 10.5592 21 11.3977L21 18.6023C21 19.4407 21 19.86 20.8367 20.1805C20.6929 20.4628 20.4628 20.6929 20.1805 20.8367C19.86 21 19.4408 21 18.6023 21L15 21" stroke="black" stroke-linecap="round" stroke-linejoin="round"/>
</g>
</svg>
