<svg width="30" height="30" viewBox="0 0 30 30" fill="none" xmlns="http://www.w3.org/2000/svg">
<g id="Frame 730">
<rect width="30" height="30" rx="15" fill="#FCE6C6"/>
<path id="Vector" d="M19.6665 22V19.6667M19.6665 19.6667H12.8198C11.9503 19.6667 11.5149 19.6667 11.1825 19.4973C10.8898 19.3482 10.652 19.1097 10.5029 18.817C10.3333 18.4843 10.3333 18.049 10.3333 17.1778V10.3333M19.6665 19.6667H22M10.3333 10.3333H8M10.3333 10.3333V8M13.4444 10.3333H17.1777C18.0489 10.3333 18.4841 10.3333 18.8169 10.5029C19.1096 10.652 19.348 10.8898 19.4972 11.1825C19.6665 11.5149 19.6665 11.9503 19.6665 12.8198V16.5557" stroke="white" stroke-width="1.5" stroke-linecap="round" stroke-linejoin="round"/>
</g>
</svg>
