<svg width="30" height="30" viewBox="0 0 30 30" fill="none" xmlns="http://www.w3.org/2000/svg">
<g id="Frame 732">
<rect width="30" height="30" rx="15" fill="#CFD9FF"/>
<path id="Vector" d="M9.74998 14.1113V9.84462C9.74998 8.84897 9.74998 8.35077 9.94071 7.97049C10.1085 7.63598 10.376 7.36421 10.7053 7.19377C11.0796 7 11.57 7 12.5501 7H16.4653C16.5725 7 16.6663 7 16.7499 7.00077M21.999 12.3333C21.9998 12.4183 21.9998 12.5137 21.9998 12.6228V20.1587C21.9998 21.1524 21.9998 21.6493 21.8093 22.0292C21.6415 22.3637 21.3733 22.636 21.044 22.8064C20.67 23 20.1807 23 19.2025 23L15.8749 23M21.999 12.3333C21.9966 12.0796 21.9873 11.9189 21.9511 11.7656C21.9083 11.5842 21.8373 11.4108 21.7413 11.2517C21.6331 11.0723 21.4826 10.919 21.1799 10.6115L18.4452 7.83333C18.1427 7.52606 17.9911 7.37206 17.8146 7.26215C17.658 7.16468 17.4874 7.09267 17.3089 7.04912C17.1579 7.01231 16.9998 7.00308 16.7499 7.00077M21.999 12.3333H19.5472C18.569 12.3333 18.0792 12.3333 17.7052 12.1398C17.3759 11.9693 17.1084 11.6968 16.9406 11.3623C16.7499 10.982 16.7499 10.4845 16.7499 9.48889V7.00077M12.3749 16.7778L14.1249 18.5556M8 23V20.7778L14.5624 14.1111L16.7499 16.3333L10.1875 23H8Z" stroke="white" stroke-width="1.5" stroke-linecap="round" stroke-linejoin="round"/>
</g>
</svg>
