<svg width="35" height="35" viewBox="0 0 35 35" fill="none" xmlns="http://www.w3.org/2000/svg">
<g id="Frame 707">
<rect width="35" height="35" rx="17.5" fill="#E5E5E5"/>
<g id="vuesax/broken/setting-4">
<g id="setting-4">
<path id="Vector" d="M24.0625 13.8906H20.125" stroke="black" stroke-width="1.3" stroke-miterlimit="10" stroke-linecap="round" stroke-linejoin="round"/>
<path id="Vector_2" d="M13.5625 13.8906H10.9375" stroke="black" stroke-width="1.3" stroke-miterlimit="10" stroke-linecap="round" stroke-linejoin="round"/>
<path id="Vector_3" d="M18.4844 13.8906C18.4844 15.1572 17.4541 16.1875 16.1875 16.1875C14.9209 16.1875 13.8906 15.1572 13.8906 13.8906C13.8906 12.6241 14.9209 11.5938 16.1875 11.5938C16.4106 11.5938 16.6272 11.6266 16.8306 11.6856" stroke="black" stroke-width="1.3" stroke-miterlimit="10" stroke-linecap="round" stroke-linejoin="round"/>
<path id="Vector_4" d="M24.0625 21.1093H21.4375" stroke="black" stroke-width="1.3" stroke-miterlimit="10" stroke-linecap="round" stroke-linejoin="round"/>
<path id="Vector_5" d="M14.875 21.1093H10.9375" stroke="black" stroke-width="1.3" stroke-miterlimit="10" stroke-linecap="round" stroke-linejoin="round"/>
<path id="Vector_6" d="M18.8125 23.4062C20.081 23.4062 21.1094 22.3778 21.1094 21.1093C21.1094 19.8408 20.081 18.8124 18.8125 18.8124C17.544 18.8124 16.5156 19.8408 16.5156 21.1093C16.5156 22.3778 17.544 23.4062 18.8125 23.4062Z" stroke="black" stroke-width="1.3" stroke-miterlimit="10" stroke-linecap="round" stroke-linejoin="round"/>
</g>
</g>
</g>
</svg>
